<svg xmlns="http://www.w3.org/2000/svg" xmlns:xlink="http://www.w3.org/1999/xlink" width="500" zoomAndPan="magnify" viewBox="0 0 375 374.999991" height="500" preserveAspectRatio="xMidYMid meet" version="1.0"><defs><g/></defs><g fill="#ffffff" fill-opacity="1"><g transform="translate(81.957259, 264.937003)"><g><path d="M 16.796875 0 L 16.796875 -137.53125 L 60.96875 -137.53125 L 60.96875 0 Z M 16.796875 0 "/></g></g></g><g fill="#ffffff" fill-opacity="1"><g transform="translate(159.714307, 264.937003)"><g><path d="M 118.53125 -47.78125 C 118.53125 -30.582031 113.632812 -17.914062 103.84375 -9.78125 C 94.050781 -1.65625 79.957031 2.40625 61.5625 2.40625 C 43.175781 2.40625 29.082031 -1.65625 19.28125 -9.78125 C 9.488281 -17.914062 4.59375 -30.582031 4.59375 -47.78125 L 4.59375 -49.578125 L 45.96875 -49.578125 L 45.96875 -47.96875 C 45.96875 -41.707031 47.132812 -37.242188 49.46875 -34.578125 C 51.800781 -31.910156 55.367188 -30.578125 60.171875 -30.578125 C 64.960938 -30.578125 68.523438 -31.910156 70.859375 -34.578125 C 73.191406 -37.242188 74.359375 -41.707031 74.359375 -47.96875 L 74.359375 -137.53125 L 118.53125 -137.53125 Z M 118.53125 -47.78125 "/></g></g></g></svg>