<?xml version="1.0" standalone="no"?>
<!DOCTYPE svg PUBLIC "-//W3C//DTD SVG 20010904//EN"
 "http://www.w3.org/TR/2001/REC-SVG-20010904/DTD/svg10.dtd">
<svg version="1.0" xmlns="http://www.w3.org/2000/svg"
 width="500.000000pt" height="500.000000pt" viewBox="0 0 500.000000 500.000000"
 preserveAspectRatio="xMidYMid meet">
<metadata>
Created by potrace 1.16, written by Peter Selinger 2001-2019
</metadata>
<g transform="translate(0.000000,500.000000) scale(0.100000,-0.100000)"
fill="#000000" stroke="none">
<path d="M992 4615 c-78 -40 -132 -93 -172 -171 l-25 -49 -8 -1530 c-4 -841
-9 -1640 -9 -1775 -2 -328 10 -479 42 -544 37 -72 91 -128 162 -167 l63 -34
525 -8 c786 -12 888 -12 1610 -3 l665 8 72 34 c79 38 132 90 173 170 l25 49 0
1900 0 1900 -25 49 c-40 78 -94 131 -172 171 l-71 35 -1392 0 -1392 0 -71 -35z
m1673 -1186 c22 -7 79 -11 126 -9 158 3 266 -28 348 -101 25 -22 66 -55 91
-73 53 -38 86 -84 101 -140 6 -23 24 -70 40 -106 33 -76 56 -171 61 -252 4
-67 -13 -82 -24 -21 -24 145 -138 274 -286 325 -54 18 -88 23 -177 23 -89 0
-123 -5 -177 -23 -225 -78 -348 -325 -268 -537 28 -72 119 -169 195 -208 100
-50 143 -57 362 -57 118 0 203 -4 203 -9 0 -5 -28 -34 -62 -63 -34 -29 -82
-74 -107 -100 -25 -25 -64 -56 -86 -67 -91 -45 -252 -52 -360 -16 -28 9 -68
34 -90 55 -38 36 -43 38 -88 33 -114 -13 -265 64 -319 164 -16 28 -28 61 -28
73 0 13 -23 47 -57 83 -33 37 -70 92 -92 136 -30 64 -36 88 -39 165 -4 85 12
226 26 226 4 0 16 -13 26 -29 45 -67 128 -80 224 -34 105 49 202 172 219 277
11 70 -65 166 -146 182 -17 4 -31 10 -31 15 0 22 141 82 215 92 63 8 162 6
200 -4z m-390 -178 c83 -38 96 -83 50 -177 -40 -83 -130 -150 -214 -161 -30
-4 -41 0 -65 26 -42 44 -59 117 -41 184 10 40 23 61 59 94 26 23 56 44 69 46
51 10 104 5 142 -12z m779 -256 c85 -18 141 -50 199 -115 44 -49 87 -138 87
-180 0 -18 -7 -20 -65 -20 -52 0 -69 -4 -85 -20 -25 -25 -25 -51 -1 -81 19
-24 19 -24 -6 -51 -54 -56 -30 -151 48 -190 33 -18 31 -18 -163 -18 -164 0
-206 3 -257 19 -117 36 -202 106 -243 199 -29 65 -22 197 14 267 36 69 92 122
164 157 103 48 191 58 308 33z m387 -516 c31 -50 -16 -89 -107 -89 -45 0 -82
13 -96 34 -11 16 -10 50 2 62 16 16 190 10 201 -7z m-1400 -159 c4 -8 15 -37
24 -63 23 -66 70 -123 135 -167 77 -52 133 -71 223 -77 42 -3 77 -9 77 -13 0
-25 130 -83 218 -96 42 -7 42 -7 25 -26 -44 -48 -91 -62 -228 -66 -71 -2 -136
-9 -142 -14 -8 -7 -13 -37 -13 -84 0 -64 3 -75 22 -88 12 -9 32 -16 44 -16 21
0 74 -51 74 -71 0 -15 -297 -12 -307 4 -4 6 -10 68 -13 137 l-5 125 -155 0
-155 0 -3 -79 c-3 -87 10 -116 55 -116 27 0 73 -41 73 -65 0 -13 -21 -15 -144
-15 -112 0 -146 3 -155 14 -9 11 -11 93 -9 308 l3 293 30 54 c35 63 77 98 148
123 63 22 166 21 178 -2z m803 -696 c11 -8 30 -14 43 -14 27 0 73 -41 73 -65
0 -13 -21 -15 -143 -15 -98 0 -147 4 -155 12 -8 8 -12 47 -12 109 l0 96 44 17
c24 9 61 32 82 50 l39 34 5 -105 c4 -89 8 -107 24 -119z"/>
</g>
</svg>
