<?xml version="1.0" standalone="yes"?>
<svg width="500" height="500">
<path style="fill:#ffffff; stroke:none;" d="M0 0L0 500L500 500L500 0L0 0z"/>
<path style="fill:#5d5c5c; stroke:none;" d="M78 35L77 468L412 466L412 35L78 35z"/>
<path style="fill:#000000; stroke:none;" d="M158.148 157.028C153.904 159.541 155 165.843 155 170L155 208L155 303C155 314.413 151.33 333.397 155.742 343.941C157.246 347.536 160.529 347.93 164 347.995C172.262 348.151 189.628 351.189 196.772 346.821C201.163 344.136 200 337.352 200 333L200 295L200 200C200 188.958 203.628 170.302 199.397 160.109C197.95 156.624 194.345 156.12 191 156.015C182.841 155.759 165.231 152.834 158.148 157.028M315.513 157.028C312.381 159.25 311.989 165.552 311.127 169C308.492 179.537 305 189.056 305 200L305 301C305 312.938 301.13 332.919 305.742 343.941C308.25 349.935 326.834 349.84 331.772 346.821C335.465 344.563 334.994 339.741 335 336L335 309C335 270.56 339.44 229.133 334.816 191C333.799 182.621 330.443 165.27 325.697 158.318C323.8 155.539 318.186 155.132 315.513 157.028z"/>
<path style="fill:#33c0db; stroke:none;" d="M161 162L161 180L170 180L170 186L161 186L161 198L176 198L176 204L161 204L161 216L170 216L170 222L161 222L161 234L176 234L176 240L161 240L161 252L170 252L170 258L161 258L161 270L176 270L176 276L161 276L161 288L170 288L170 294L161 294L161 306L176 306L176 312L161 312L161 324L170 324L170 330L161 330L161 342L194 342L194 162L161 162z"/>
<path style="fill:#000000; stroke:none;" d="M215.015 162.742C209.23 165.024 209.009 170.669 209 176L209 211L209 291C209 302.031 206.26 317.292 209.545 327.83C210.771 331.764 212.635 337.841 216.109 340.258C221.641 344.106 241.78 343.705 247.985 341.258C252.641 339.421 253.133 335.347 254.864 331.285C259.877 319.523 257 302.729 257 290L257 200C257 191.282 260.371 173.458 255.258 166.109C250.44 159.185 222.441 159.814 215.015 162.742M278 162C277.941 179.27 268.059 197.401 266.174 215C263.279 242.025 266 270.808 266 298C266 309.609 264.873 321.194 268.459 332.17C269.723 336.039 269.201 340.387 274.044 341.682C299.961 348.613 296 316.37 296 300C296 272.155 298.791 242.675 295.826 215C293.942 197.414 284.059 179.209 284 162L278 162z"/>
<path style="fill:#716e6a; stroke:none;" d="M319 162L316 177L324 177L321 162L319 162z"/>
<path style="fill:#000000; stroke:none;" d="M179 168L179 177L185 177L185 168L179 168z"/>
<path style="fill:#73706c; stroke:none;" d="M216 168L217 169L216 168z"/>
<path style="fill:#dfdad1; stroke:none;" d="M215 203L216 203C222.67 194.25 216.841 184.216 222.028 176.294C224.78 172.09 230.63 175.196 234 176.781C247.809 183.277 241.916 192.394 250 203C252.899 196.092 251.015 185.47 251 178C250.994 175.054 251.516 170.919 248.682 169.028C244.787 166.429 236.503 168 232 168C227.938 168 219.744 166.463 216.603 169.603C211.443 174.764 215 195.893 215 203z"/>
<path style="fill:#73706c; stroke:none;" d="M249 168L250 169L249 168z"/>
<path style="fill:#74716d; stroke:none;" d="M215 169L216 170L215 169M250 169L251 170L250 169z"/>
<path style="fill:#3b3a37; stroke:none;" d="M316 172L316 175L317 175L316 172M323 172L323 175L324 175L323 172z"/>
<path style="fill:#faf4eb; stroke:none;" d="M225 173L225 174L245 183L245 182L225 173z"/>
<path style="fill:#65635f; stroke:none;" d="M221 175L222 176L221 175z"/>
<path style="fill:#787570; stroke:none;" d="M234 178L235 179L234 178z"/>
<path style="fill:#c14330; stroke:none;" d="M280 178L280 180L282 180L282 178L280 178z"/>
<path style="fill:#676561; stroke:none;" d="M236 179L237 180L236 179z"/>
<path style="fill:#e65039; stroke:none;" d="M280 180L275 201L287 201C286.702 195.183 284.929 183.467 280 180z"/>
<path style="fill:#f39237; stroke:none;" d="M227 182L227 198L239 198C239 188.211 236.804 184.824 227 182z"/>
<path style="fill:#9f3727; stroke:none;" d="M279.333 182.667L279.667 183.333L279.333 182.667z"/>
<path style="fill:#918e87; stroke:none;" d="M244 183L245 184L244 183z"/>
<path style="fill:#f5b9b0; stroke:none;" d="M314 183L312 192L328 192L326 183L314 183z"/>
<path style="fill:#81625d; stroke:none;" d="M313.333 184.667L313.667 185.333L313.333 184.667M326.333 184.667L326.667 185.333L326.333 184.667z"/>
<path style="fill:#953425; stroke:none;" d="M283.333 185.667L283.667 186.333L283.333 185.667z"/>
<path style="fill:#82625d; stroke:none;" d="M312.333 188.667L312.667 189.333L312.333 188.667M327.333 188.667L327.667 189.333L327.333 188.667z"/>
<path style="fill:#842e21; stroke:none;" d="M277.333 189.667L277.667 190.333L277.333 189.667z"/>
<path style="fill:#8e3123; stroke:none;" d="M285.333 192.667L285.667 193.333L285.333 192.667z"/>
<path style="fill:#943425; stroke:none;" d="M276.333 193.667L276.667 194.333L276.333 193.667z"/>
<path style="fill:#726f6a; stroke:none;" d="M246 198L247 199L246 198z"/>
<path style="fill:#9bc53d; stroke:none;" d="M311 198L311 312L317 312L317 225C317 217.552 320.851 198.768 311 198z"/>
<path style="fill:#91b93a; stroke:none;" d="M323 312L329 312L329 198C319.149 198.768 323 217.552 323 225L323 312z"/>
<path style="fill:#585653; stroke:none;" d="M218 199L219 200L218 199z"/>
<path style="fill:#595854; stroke:none;" d="M247 199L248 200L247 199z"/>
<path style="fill:#8a8782; stroke:none;" d="M217 200L218 201L217 200z"/>
<path style="fill:#8c8883; stroke:none;" d="M248 200L249 201L248 200z"/>
<path style="fill:#b35f39; stroke:none;" d="M215 219L251 219C250.333 198.018 215.667 198.018 215 219z"/>
<path style="fill:#787470; stroke:none;" d="M273 213L289 213C288.007 204.374 273.993 204.374 273 213z"/>
<path style="fill:#fcb641; stroke:none;" d="M272 219L272 312L290 312L290 219L272 219z"/>
<path style="fill:#f39237; stroke:none;" d="M215 225L215 324L251 324L251 225L215 225z"/>
<path style="fill:#000000; stroke:none;" d="M278 231L278 258L284 258L284 231L278 231M245 288L239 288C238.944 294.174 232.112 305.906 227.742 294.981C223.883 285.332 225.538 263.28 227.148 253.001C228.143 246.65 235.732 244.272 238.397 251.044C241.647 259.304 239 273.144 239 282L245 282C245 272.499 248.501 254.177 243.258 246.019C236.699 235.814 221.781 240.222 221.044 252C220.382 262.582 221 273.396 221 284C221 288.652 220.01 294.718 222.179 298.996C226.524 307.566 238.099 308.008 243.258 299.981C245.521 296.459 245 291.995 245 288z"/>
<path style="fill:#e65039; stroke:none;" d="M239 288L242 288L242 282L239 282C239 272.534 241.127 260.187 238.682 251.044C236.874 244.282 228.182 245.485 227.148 252.005C225.482 262.518 223.64 286.142 227.742 295.941C232.376 307.01 238.984 293.649 239 288z"/>
<path style="fill:#8b5621; stroke:none;" d="M241 302L242 303L241 302z"/>
<path style="fill:#787470; stroke:none;" d="M272 318L272 324L290 324L290 318L272 318M311 318L311 324L329 324L329 318L311 318z"/>
<path style="fill:#bf653d; stroke:none;" d="M218 330C218.742 339.525 247.258 339.525 248 330L218 330z"/>
<path style="fill:#f5553d; stroke:none;" d="M275 330L275 336L287 336L287 330L275 330z"/>
<path style="fill:#dfdad1; stroke:none;" d="M311 330L311 342L329 342L329 330L311 330z"/>
</svg>
