<?xml version="1.0" standalone="yes"?>
<svg width="500" height="500">
<path style="fill:#ffffff; stroke:none;" d="M0 0L0 500L500 500L500 0L0 0z"/>
<path style="fill:#5d5c5c; stroke:none;" d="M78 35L77 468L412 466L412 35L78 35z"/>
<path style="fill:#88c057; stroke:none;" d="M241 188L241 189L247 201C259.54 192.166 274.166 177.54 283 165C261.436 165 251.56 168.195 241 188z"/>
<path style="fill:#769060; stroke:none;" d="M283 165L283 181L284 181L283 165z"/>
<path style="fill:#98d862; stroke:none;" d="M282 166L256 192C251.714 196.288 247.287 199.538 248 206C268.763 206 291.818 189.397 282 166z"/>
<path style="fill:#bf8e5f; stroke:none;" d="M239 210L239 211L250 211C244.785 201.638 245.944 191.745 237.674 183.425C234.864 180.598 225.296 174.419 225.296 183.005C225.296 191.978 245.037 198.923 239 210z"/>
<path style="fill:#ed7161; stroke:none;" d="M196 197.529C151.72 207.548 155.525 279.299 176.44 307.871C190.549 327.146 226.732 330.583 248 325.403C288.048 315.648 311.064 280.806 311 241C310.98 228.772 307.787 209.482 298.502 200.513C281.78 184.362 259.684 211.261 244 210.938C237.169 210.798 231.761 205.833 226 202.782C217.009 198.02 206.177 195.226 196 197.529z"/>
<path style="fill:#d56455; stroke:none;" d="M300 201C301.376 208.721 306.337 215.448 308.561 223C312.005 234.694 311.76 248.068 309.806 260C302.758 303.014 259.29 332.206 217 326.711C202.421 324.816 192.053 316.417 179 311C187.033 324.913 203.334 338.211 220 338.961C227.449 339.296 232.941 336.278 240 335.213C247.942 334.015 254.377 337.903 262 338.816C272.337 340.053 283.503 336.368 292 330.64C328.055 306.337 348.768 224.2 300 201z"/>
<path style="fill:#6d8c5f; stroke:none;" d="M248 206L248 207L257 207L248 206z"/>
<path style="fill:#5d5c5c; stroke:none;" d="M248 210L255 208C252.12 206.341 248.772 206.398 248 210z"/>
<path style="fill:#f7c0b9; stroke:none;" d="M198 215L200 217L200 215L198 215z"/>
<path style="fill:#ffffff; stroke:none;" d="M182 275L183 275C179.999 251.257 185.569 235.142 199 216C174.092 220.509 175.181 257.185 182 275z"/>
<path style="fill:#f8cbc5; stroke:none;" d="M177 245L177 258L178 258L177 245z"/>
<path style="fill:#f39e93; stroke:none;" d="M182 250L182 272L183 272L182 250z"/>
<path style="fill:#f6b9b1; stroke:none;" d="M178 262L178 265L179 265L178 262z"/>
</svg>
