<?xml version="1.0" standalone="yes"?>
<svg width="500" height="500">
<path style="fill:#ffffff; stroke:none;" d="M0 0L0 500L500 500L500 0L0 0z"/>
<path style="fill:#5d5c5c; stroke:none;" d="M78 35L77 468L412 466L412 35L78 35z"/>
<path style="fill:#d41b37; stroke:none;" d="M254 161L254 162C259.72 169.55 255.329 186.714 256.055 195.961C256.359 199.833 259.849 202.337 260.119 205.985C260.359 209.229 257.505 210.273 255 211L255 212L256 240L256.147 268.896L261.288 278.988L256.317 287.209L256 305C275.924 305.002 293.073 302.128 310 290.279C314.539 287.101 323.826 281.368 323.577 275C323.359 269.423 317.517 262.76 314.86 258C306.805 243.568 298.345 229.357 290.15 215L267.15 175C263.83 169.182 261.258 162.129 254 161z"/>
<path style="fill:#e51837; stroke:none;" d="M267 306L267 305L256 305C256 299.742 254.94 293.194 256.317 288.104C257.381 284.173 262.066 282.593 261.613 278.012C261.202 273.868 256.8 272.047 256.147 267.957C253.639 252.236 253.323 227.444 257 212C250.618 208.575 250.736 203.064 258 201L258 200C252.158 192.289 256 171.601 256 162C247.879 164.389 243.667 177.142 239.603 184C226.664 205.836 214.202 227.981 201.579 250C198.113 256.045 186.457 269.885 188.647 277C190.65 283.505 199.595 288.827 205 292.302C224.89 305.089 244.18 306 267 306z"/>
<path style="fill:#782a36; stroke:none;" d="M254 201L254 202L258 202L254 201z"/>
<path style="fill:#353535; stroke:none;" d="M253.319 203.032C248.353 206.257 254.021 212.994 258.681 209.968C263.647 206.743 257.979 200.006 253.319 203.032z"/>
<path style="fill:#632d36; stroke:none;" d="M269 225L269 226L274 226L269 225z"/>
<path style="fill:#353535; stroke:none;" d="M268.604 227.029C264.421 230.34 270.325 237.385 274.396 233.392C278.374 229.49 272.811 223.698 268.604 227.029z"/>
<path style="fill:#7f2936; stroke:none;" d="M276 228L276 232L277 232L276 228z"/>
<path style="fill:#353535; stroke:none;" d="M237.317 230.047C232.733 232.875 236.725 241.011 241.683 237.953C246.267 235.125 242.275 226.989 237.317 230.047z"/>
<path style="fill:#912636; stroke:none;" d="M234 232L234 236L235 236L234 232z"/>
<path style="fill:#922636; stroke:none;" d="M244 232L244 236L245 236L244 232z"/>
<path style="fill:#353535; stroke:none;" d="M261.317 248.086C257.112 250.431 260.005 258.36 264.856 255.914C269.813 253.414 266.061 245.441 261.317 248.086z"/>
<path style="fill:#2e3635; stroke:none;" d="M221.318 265.072C216.862 267.721 221.277 275.587 225.682 272.338C229.876 269.244 225.945 262.32 221.318 265.072z"/>
<path style="fill:#353535; stroke:none;" d="M289.318 265.086C285.198 267.392 288.199 275.111 292.867 272.863C297.875 270.452 294.026 262.452 289.318 265.086M254.313 275.086C250.162 277.437 252.936 284.499 257.687 282.377C262.003 280.45 258.736 272.582 254.313 275.086z"/>
<path style="fill:#77c25b; stroke:none;" d="M324 274C320.743 285.605 305.081 293.323 295 298.243C258.708 315.957 212.539 306.219 187 275C183.179 281.48 172.224 294.418 172.596 302C172.791 305.98 177.203 308.947 180 311.192C188.408 317.943 198.073 323.4 208 327.576C238.371 340.349 273.507 339.748 304 327.396C313.584 323.513 336.543 314.165 339.264 302.999C340.864 296.435 328.217 279.037 324 274z"/>
<path style="fill:#7e2936; stroke:none;" d="M251 277L251 280L252 280L251 277z"/>
<path style="fill:#722b36; stroke:none;" d="M260 277L260 280L261 280L260 277z"/>
<path style="fill:#792a36; stroke:none;" d="M255 283L255 284L258 284L255 283z"/>
<path style="fill:#9e6d48; stroke:none;" d="M289.667 300.333L290.333 300.667L289.667 300.333z"/>
<path style="fill:#9b7349; stroke:none;" d="M280.667 303.333L281.333 303.667L280.667 303.333z"/>
<path style="fill:#c84641; stroke:none;" d="M244 306L244 307L262 307L244 306z"/>
<path style="fill:#97784b; stroke:none;" d="M262 306L262 307L267 307L262 306z"/>
</svg>
