<?xml version="1.0" standalone="yes"?>
<svg width="500" height="500">
<path style="fill:#ffffff; stroke:none;" d="M0 0L0 500L500 500L500 0L0 0z"/>
<path style="fill:#5d5c5c; stroke:none;" d="M78 35L77 468L412 466L412 35L78 35z"/>
<path style="fill:#000000; stroke:none;" d="M182 250L172 250C172 238.863 168.923 234.869 161 227.001C159.547 225.558 151.385 216.724 149.752 222.323C148.698 225.934 153.859 229.844 156.001 232C161.81 237.85 165.97 241.479 166 250C161.367 250 153.095 248.421 149.318 251.603C144.692 255.501 148.196 261.555 149.455 266C151.359 272.72 151.449 281.023 152 288C148.951 288.099 145.776 288.192 144.028 291.148C142.132 294.353 143 299.432 143 303C143 312.499 140.726 325.387 145.417 334C152.936 347.802 168.796 345 182 345C182.023 353.056 184.393 360.742 193.001 363.351C201.827 366.027 213.814 364 223 364L269 364C276.202 364 285.066 365.371 292 363.196C300.421 360.555 302.933 352.968 303 345C314.236 345 328.391 347.495 336.61 337.906C344.595 328.589 342 314.36 342 303C342 296.667 342.937 290.495 336 288C338.984 277.088 347.902 266.677 346.829 255C345.031 235.432 328.203 244.901 323 258L322 258C322 252.523 324.487 238.694 320.397 234.603C316.76 230.966 305.802 233 301 233C300.41 226.284 297.459 219.548 293.56 214.059C292.291 212.272 288.132 208.286 286.711 212.323C284.973 217.256 293.773 229.655 295.255 235C299.155 249.075 297 265.5 297 280L237 280C233.777 280 218.636 278.041 218.636 283C218.636 287.959 233.777 286 237 286L297 286L297 333C297 339.304 298.423 347.55 294.347 352.895C289.007 359.897 278.722 358 271 358L213 358C205.3 358 195.772 359.844 190.434 352.956C186.415 347.771 188 339.169 188 333L188 286C191.621 286 210.364 288.125 210.364 283C210.364 277.875 191.621 280 188 280C188 245.915 186.482 211.304 224 196.015C239.2 189.82 255.953 192.079 270 200.478C272.11 201.74 280.586 209.157 282.248 203.721C283.693 198.996 273.938 195.794 273.148 190.96C271.358 180.007 275.447 167.735 272.362 157C267.274 139.297 238.722 134.188 224 142.533C204.097 153.815 216.472 174.575 211.682 191.896C209.949 198.163 198.672 203.719 194.518 209C184.714 221.461 182 234.632 182 250z"/>
<path style="fill:#693e0d; stroke:none;" d="M232 146L232 147L251 147L232 146z"/>
<path style="fill:#b36318; stroke:none;" d="M229.667 147.333L230.333 147.667L229.667 147.333z"/>
<path style="fill:#f6911e; stroke:none;" d="M218 191C232.32 186.604 216.558 162.072 231.04 154.457C234.117 152.839 237.63 153.005 241 153C250.956 152.984 259.943 155.304 260.907 167C261.445 173.534 257.529 188.586 266 190C266 180.246 269.172 163.651 264.196 155.04C257.42 143.315 228.442 142.937 220.97 154.04C214.748 163.285 218 180.291 218 191z"/>
<path style="fill:#53340b; stroke:none;" d="M254.667 147.333L255.333 147.667L254.667 147.333z"/>
<path style="fill:#2c1a05; stroke:none;" d="M232 153L232 154L252 154L232 153z"/>
<path style="fill:#262626; stroke:none;" d="M211 159L211 195L212 195C212 184.613 215.011 168.56 211 159z"/>
<path style="fill:#1b1a1a; stroke:none;" d="M234 159L234 160L250 160L234 159z"/>
<path style="fill:#5d5c5c; stroke:none;" d="M231 187L253 187C253 181.113 255.697 166.306 251.972 161.603C250.109 159.251 245.617 160.001 243 160C226.614 159.994 231 174.13 231 187z"/>
<path style="fill:#9b5d13; stroke:none;" d="M266 160L265 191C269.477 187.088 268.268 165.404 266 160z"/>
<path style="fill:#885110; stroke:none;" d="M224 161L224 189L225 189L224 161z"/>
<path style="fill:#464545; stroke:none;" d="M273 161L273 195L274 195L273 161z"/>
<path style="fill:#2d2d2d; stroke:none;" d="M253 162L253 187L254 187L253 162z"/>
<path style="fill:#d6751c; stroke:none;" d="M260 163L260 189L261 189L260 163z"/>
<path style="fill:#514102; stroke:none;" d="M236 192L236 193L247 193L236 192z"/>
<path style="fill:#b97c14; stroke:none;" d="M231 193L231 194L235 194L231 193z"/>
<path style="fill:#fdcd08; stroke:none;" d="M217 206L217 207C225.26 205.128 232.191 200.227 241 200.054C262.442 199.633 286.073 218.071 288 240L290 239L295 247L292.546 226L287 211C283.939 207.059 280.061 206.654 276 204.083C265.565 197.477 249.242 189.16 236.285 193.549C229.151 195.966 223.441 202.295 217 206z"/>
<path style="fill:#b09106; stroke:none;" d="M249 193L249 194L252 194L249 193z"/>
<path style="fill:#8a600d; stroke:none;" d="M227.667 194.333L228.333 194.667L227.667 194.333z"/>
<path style="fill:#faab18; stroke:none;" d="M189 279L202 279C202 271.115 203.81 260.725 201.682 253.129C200.538 249.045 196.296 247.746 196.098 242.999C195.531 229.425 207.235 214.734 218 208L217 206L235 195C227.188 191.814 216.134 198.683 210 203.159C184.638 221.667 189 251.381 189 279z"/>
<path style="fill:#786604; stroke:none;" d="M255.667 194.333L256.333 194.667L255.667 194.333z"/>
<path style="fill:#9e8005; stroke:none;" d="M236 200L236 201L247 201L236 200z"/>
<path style="fill:#725f04; stroke:none;" d="M270 200L271 201L270 200z"/>
<path style="fill:#917605; stroke:none;" d="M231.667 201.333L232.333 201.667L231.667 201.333z"/>
<path style="fill:#000000; stroke:none;" d="M233 201.515C218.643 204.453 206.547 213.617 200.324 227C199.073 229.691 192.181 250.422 199.741 249.079C202.534 248.582 206.392 230.303 208.351 227C217.529 211.528 236.659 202.988 254 208.825C266.404 213 279.367 225.555 281.262 238.996C281.896 243.499 278.221 245.263 276.742 249.039C272.802 259.096 276.999 272.799 288.981 270.852C294.878 269.893 293.046 265.34 293.343 261C293.581 257.536 295.341 254.554 294.413 251.001C292.966 245.462 288.499 241.926 287.113 236C281.488 211.962 257.3 196.541 233 201.515z"/>
<path style="fill:#5a4c03; stroke:none;" d="M228.667 202.333L229.333 202.667L228.667 202.333z"/>
<path style="fill:#b99c06; stroke:none;" d="M255.667 202.333L256.333 202.667L255.667 202.333z"/>
<path style="fill:#786604; stroke:none;" d="M273 202L274 203L273 202z"/>
<path style="fill:#4d3e02; stroke:none;" d="M279 206L279 207L282 207L279 206z"/>
<path style="fill:#4d4103; stroke:none;" d="M234.667 207.333L235.333 207.667L234.667 207.333z"/>
<path style="fill:#c19d06; stroke:none;" d="M236 207L236 208L247 208L236 207z"/>
<path style="fill:#6b5703; stroke:none;" d="M247.667 207.333L248.333 207.667L247.667 207.333z"/>
<path style="fill:#a78805; stroke:none;" d="M231.667 208.333L232.333 208.667L231.667 208.333z"/>
<path style="fill:#fdcd08; stroke:none;" d="M202 279C211.492 279.308 211.492 286.692 202 287C202.704 296.042 215.218 293 222 293L264 293C269.571 293 277.899 291.482 282.956 294.179C287.198 296.441 287.935 300.619 287.996 305C288.129 314.54 292.583 341.52 282.906 346.821C276.887 350.118 265.709 348 259 348L202 348C203.536 358.17 211.638 356 220 356L272 356C277.282 356 288.399 358.288 292.772 355.218C297.789 351.695 296 342.27 296 337L296 287L237 287C232.98 287 219.602 289.111 219.117 282.961C218.566 275.956 231.997 278 236 278L295 278L295 270C290.473 271.763 283.516 273.606 279.244 270.258C275.883 267.623 277.74 264.497 277.521 261C277.009 252.84 274.425 250.088 282 244C280.084 234.122 277.448 225.322 269.96 218.093C253.585 202.288 225.428 204.93 211.329 222C198.689 237.303 202 260.578 202 279z"/>
<path style="fill:#907805; stroke:none;" d="M251 208L251 209L254 209L251 208z"/>
<path style="fill:#4d4203; stroke:none;" d="M255.667 209.333L256.333 209.667L255.667 209.333z"/>
<path style="fill:#7e6c04; stroke:none;" d="M260 211L261 212L260 211z"/>
<path style="fill:#8d5e0d; stroke:none;" d="M200 212L201 213L200 212z"/>
<path style="fill:#a88605; stroke:none;" d="M285.333 212.667L285.667 213.333L285.333 212.667z"/>
<path style="fill:#927905; stroke:none;" d="M274 213L275 214L274 213z"/>
<path style="fill:#856804; stroke:none;" d="M286 215L287 216L286 215z"/>
<path style="fill:#895a0d; stroke:none;" d="M197 216L198 217L197 216z"/>
<path style="fill:#806704; stroke:none;" d="M214 218L215 219L214 218z"/>
<path style="fill:#7c6204; stroke:none;" d="M288 218L289 219L288 218z"/>
<path style="fill:#7d6204; stroke:none;" d="M209 224L210 225L209 224z"/>
<path style="fill:#3f3302; stroke:none;" d="M218 227L218 228L266 228C253.586 222.791 231.526 227 218 227z"/>
<path style="fill:#000000; stroke:none;" d="M216.148 229.028C210.25 232.52 210.866 260.448 216.148 264.397C219.34 266.783 224.261 266 228 266C237.957 266 258.173 269.88 266.891 264.972C273.126 261.463 273.851 234.196 268.566 229.603C265.52 226.956 259.726 228 256 228C246.056 228 224.738 223.942 216.148 229.028z"/>
<path style="fill:#7b6204; stroke:none;" d="M277 228L278 229L277 228z"/>
<path style="fill:#99680f; stroke:none;" d="M190.333 230.667L190.667 231.333L190.333 230.667z"/>
<path style="fill:#6a5604; stroke:none;" d="M286.333 232.667L286.667 233.333L286.333 232.667z"/>
<path style="fill:#2d2d2d; stroke:none;" d="M301 232L301 233L318 233L301 232z"/>
<path style="fill:#b29006; stroke:none;" d="M212 233L212 260L213 260L212 233z"/>
<path style="fill:#382107; stroke:none;" d="M220 233L220 234L264 234C252.537 229.19 232.48 233 220 233z"/>
<path style="fill:#9f6d0f; stroke:none;" d="M189.333 234.667L189.667 235.333L189.333 234.667z"/>
<path style="fill:#7e560c; stroke:none;" d="M197.333 234.667L197.667 235.333L197.333 234.667z"/>
<path style="fill:#b69306; stroke:none;" d="M204.333 234.667L204.667 235.333L204.333 234.667z"/>
<path style="fill:#a75c16; stroke:none;" d="M219 234L219 259L220 259L219 234z"/>
<path style="fill:#fe961f; stroke:none;" d="M220 234L220 259L264 259L264 234L220 234z"/>
<path style="fill:#71430e; stroke:none;" d="M264 234L264 259L265 259L264 234z"/>
<path style="fill:#9f8205; stroke:none;" d="M280.333 235.667L280.667 236.333L280.333 235.667z"/>
<path style="fill:#9c7e05; stroke:none;" d="M287 235L287 238L288 238L287 235z"/>
<path style="fill:#6f5a03; stroke:none;" d="M295.333 235.667L295.667 236.333L295.333 235.667z"/>
<path style="fill:#b36a16; stroke:none;" d="M226 237L226 238L258 238L226 237z"/>
<path style="fill:#3e3e3e; stroke:none;" d="M322 237L322 256L323 256L322 237z"/>
<path style="fill:#8c5f0d; stroke:none;" d="M188 238L188 245L189 245L188 238z"/>
<path style="fill:#a97310; stroke:none;" d="M196 238L196 241L197 241L196 238z"/>
<path style="fill:#a88705; stroke:none;" d="M203 238L203 241L204 241L203 238z"/>
<path style="fill:#000000; stroke:none;" d="M224 255L260 255C260 251.031 261.553 242.861 258.972 239.603C257.255 237.435 253.42 238.005 251 238C245.768 237.989 228.469 235.258 225.028 239.603C222.447 242.861 224 251.031 224 255z"/>
<path style="fill:#796204; stroke:none;" d="M281 239L281 242L282 242L281 239z"/>
<path style="fill:#ffed09; stroke:none;" d="M289 239L294.357 251L292 272L295 270L295 278L220 278L220 279L296 279L296 242L295 242L295 247L289 239z"/>
<path style="fill:#46b3d0; stroke:none;" d="M303 239L303 287L304 287L304 240L315 240L315 246L316 246L316 239L303 239z"/>
<path style="fill:#412409; stroke:none;" d="M223 240L223 254L224 254L223 240z"/>
<path style="fill:#7b480f; stroke:none;" d="M260 240L260 254L261 254L260 240z"/>
<path style="fill:#c19c06; stroke:none;" d="M288 240L288 244L289 244L288 240z"/>
<path style="fill:#735d04; stroke:none;" d="M296 240L296 280L297 280C297 268.566 300.411 250.512 296 240z"/>
<path style="fill:#5dcbf3; stroke:none;" d="M304 240L304 287L315 287L315 280C310.816 277.817 310.816 275.183 315 273L315 267C310.34 264.62 310.34 261.38 315 259L315 253C310.816 250.817 310.816 248.183 315 246L315 240L304 240z"/>
<path style="fill:#363535; stroke:none;" d="M165 241L165 249L151 249L151 250L166 250L165 241M181 241L181 249L172 249L172 250L182 250L181 241z"/>
<path style="fill:#564603; stroke:none;" d="M202 242L202 248L203 248L202 242z"/>
<path style="fill:#373328; stroke:none;" d="M229 244L229 249L230 249L229 244z"/>
<path style="fill:#a59976; stroke:none;" d="M230 244L230 245L254 245L230 244z"/>
<path style="fill:#c78813; stroke:none;" d="M188 245L188 279L189 279L188 245z"/>
<path style="fill:#fff5bc; stroke:none;" d="M230 245L230 249L254 249L254 245L230 245z"/>
<path style="fill:#302d23; stroke:none;" d="M230 249L230 250L254 250L230 249z"/>
<path style="fill:#514103; stroke:none;" d="M294.333 249.667L294.667 250.333L294.333 249.667z"/>
<path style="fill:#605870; stroke:none;" d="M284 265C286.231 263.053 288.566 255.279 287.343 252.337C286.335 249.912 283.345 250.928 282.877 253.153C282.11 256.787 284.663 260.898 284 265z"/>
<path style="fill:#735d04; stroke:none;" d="M275 251L275 256L276 256L275 251z"/>
<path style="fill:#98895d; stroke:none;" d="M337 251L338 252L337 251z"/>
<path style="fill:#fff0ac; stroke:none;" d="M338 251L333 254L333 256L340 258L338 251z"/>
<path style="fill:#6e6141; stroke:none;" d="M339.333 251.667L339.667 252.333L339.333 251.667z"/>
<path style="fill:#332f3c; stroke:none;" d="M288 252L288 255L289 255L288 252z"/>
<path style="fill:#214957; stroke:none;" d="M312 252L312 253L316 253L312 252z"/>
<path style="fill:#3d859f; stroke:none;" d="M315 253L312 259L312 260L316 260L315 253z"/>
<path style="fill:#928157; stroke:none;" d="M332.333 254.667L332.667 255.333L332.333 254.667z"/>
<path style="fill:#472a09; stroke:none;" d="M225 255L225 256L259 256L225 255z"/>
<path style="fill:#bc6f17; stroke:none;" d="M153 256L153 259L182 259L182 256L153 256z"/>
<path style="fill:#8c8264; stroke:none;" d="M340 256L339 259L340 256z"/>
<path style="fill:#ffb225; stroke:none;" d="M154 257L154 258L181 258L154 257z"/>
<path style="fill:#2b2638; stroke:none;" d="M284 258L284 263L285 263L284 258z"/>
<path style="fill:#9f5815; stroke:none;" d="M220 259L220 260L264 260C252.537 255.19 232.48 259 220 259z"/>
<path style="fill:#695603; stroke:none;" d="M292.333 260.667L292.667 261.333L292.333 260.667z"/>
<path style="fill:#f4d791; stroke:none;" d="M329 261C324.052 269.695 323.999 276.315 324 286L325 286L332 262L329 261z"/>
<path style="fill:#776104; stroke:none;" d="M214 263L215 264L214 263z"/>
<path style="fill:#feecb8; stroke:none;" d="M331 263L325 286L324 286L324 275L323 275L323 287C332.104 286.297 335.131 272.396 338 265L331 263z"/>
<path style="fill:#737158; stroke:none;" d="M334 263L335 264L334 263z"/>
<path style="fill:#796504; stroke:none;" d="M215 264L216 265L215 264z"/>
<path style="fill:#978c6c; stroke:none;" d="M156 268L157 268C162.6 263.758 174.15 266 181 266L181 287L159 287L159 283L158 283L158 288L182 288L182 265C176.665 265 157.227 262.273 156 268z"/>
<path style="fill:#866d04; stroke:none;" d="M276 265L276 268L277 268L276 265z"/>
<path style="fill:#f4d791; stroke:none;" d="M157 266L157 277L158 277L158 272L159 272L160 286L172 286C165.116 277.961 169.025 266.042 157 266z"/>
<path style="fill:#ffffd2; stroke:none;" d="M165 266L165 267L180 267L180 287L181 287L181 266L165 266z"/>
<path style="fill:#b99506; stroke:none;" d="M219 266L219 267L265 267C253.061 261.99 232.003 266 219 266z"/>
<path style="fill:#4392ae; stroke:none;" d="M312 266L312 267L315 267L315 273L316 273L316 266L312 266z"/>
<path style="fill:#82795e; stroke:none;" d="M337 266L338 267L337 266z"/>
<path style="fill:#fdebb5; stroke:none;" d="M166 267C166 273.862 165.022 281.372 172 285L172 286L160 286L159 272L158 272L159 287L180 287L180 267L166 267z"/>
<path style="fill:#413927; stroke:none;" d="M156 268L156 273L157 273L156 268z"/>
<path style="fill:#685c3e; stroke:none;" d="M325 268L326 269L325 268z"/>
<path style="fill:#988b6a; stroke:none;" d="M336 268L337 269L336 268z"/>
<path style="fill:#907304; stroke:none;" d="M277 269L278 270L277 269z"/>
<path style="fill:#8a7504; stroke:none;" d="M278 270L279 271L278 270z"/>
<path style="fill:#7b6404; stroke:none;" d="M280 271L280 272L291 272L280 271z"/>
<path style="fill:#1a3a46; stroke:none;" d="M312 273L312 274L316 274L312 273z"/>
<path style="fill:#a39061; stroke:none;" d="M322 275L322 288L328 288L328 287L323 287L322 275z"/>
<path style="fill:#7a7157; stroke:none;" d="M333 275L334 276L333 275z"/>
<path style="fill:#7b6c49; stroke:none;" d="M157 277L157 280L158 280L157 277z"/>
<path style="fill:#9a8d6c; stroke:none;" d="M332 277L333 278L332 277z"/>
<path style="fill:#9b6a0f; stroke:none;" d="M188 279L188 280L209 280L188 279z"/>
<path style="fill:#9d7f05; stroke:none;" d="M220 279L220 280L296 280L272 279L220 279z"/>
<path style="fill:#12272f; stroke:none;" d="M312 279L312 280L316 280L312 279z"/>
<path style="fill:#428fab; stroke:none;" d="M315 280L315 287L303 287L303 288L316 288L315 280z"/>
<path style="fill:#a58305; stroke:none;" d="M211.333 282.667L211.667 283.333L211.333 282.667z"/>
<path style="fill:#7d7359; stroke:none;" d="M329 284L330 285L329 284z"/>
<path style="fill:#c78813; stroke:none;" d="M188 286L188 351L189 351L189 287L209 287L188 286z"/>
<path style="fill:#c29d06; stroke:none;" d="M220 286L220 287L296 287L272 286L220 286z"/>
<path style="fill:#735d04; stroke:none;" d="M296 286L296 350L297 350L297 306L296 286z"/>
<path style="fill:#9f9270; stroke:none;" d="M328 286L329 287L328 286z"/>
<path style="fill:#faab18; stroke:none;" d="M189 287L189 335C189 340.28 187.271 349.394 190.603 353.852C193.813 358.145 200.308 357 205 357C199.938 343.884 187.62 330.14 190.527 315.001C191.173 311.637 194.173 309.753 195.4 306.715C197.836 300.687 195.999 296.346 203 293L202 287L189 287z"/>
<path style="fill:#363636; stroke:none;" d="M142 293L142 326L143 326L142 293z"/>
<path style="fill:#000000; stroke:none;" d="M200.148 294.028C195.995 296.487 197.858 301.172 196.397 304.91C195.17 308.052 191.949 309.822 190.746 313.015C187.502 321.624 193.585 330.268 196.397 337.129C197.591 340.042 196.277 343.943 199.318 345.972C203.739 348.923 213.852 347 219 347L266 347C270.982 347 280.289 348.765 284.566 345.821C287.995 343.461 287 337.568 287 334L287 306C286.999 302.359 287.678 297.39 284.566 294.742C280.289 291.103 270.257 293 265 293L219 293C213.782 293 204.771 291.29 200.148 294.028z"/>
<path style="fill:#a3381b; stroke:none;" d="M149 294L149 301L182 301L182 294L149 294z"/>
<path style="fill:#b73f1e; stroke:none;" d="M303 294L303 295L335 295L335 300L304 300L304 296L303 296L303 301L336 301L336 294L303 294z"/>
<path style="fill:#ef5227; stroke:none;" d="M150 295L150 300L181 300L181 295L150 295M303 295L304 300L335 300L335 295L303 295z"/>
<path style="fill:#927404; stroke:none;" d="M286 296L287 297L286 296z"/>
<path style="fill:#7d550c; stroke:none;" d="M196 298L196 307L197 307L196 298z"/>
<path style="fill:#b99506; stroke:none;" d="M287 298L287 343L288 343C288 330.258 291.91 309.701 287 298z"/>
<path style="fill:#682411; stroke:none;" d="M203 299L203 300L281 300L257 299L203 299z"/>
<path style="fill:#ef5227; stroke:none;" d="M203 300C203.064 305.441 205.135 311.11 211.09 312.683C217.648 314.415 226.233 313 233 313L280 313L280 300L203 300z"/>
<path style="fill:#9c351a; stroke:none;" d="M280 300L280 313L281 313L280 300z"/>
<path style="fill:#975912; stroke:none;" d="M149 307L149 308L181 308L181 338L161 338L161 339L182 339L182 307L149 307M303 307L303 308L335 308L303 307z"/>
<path style="fill:#74440e; stroke:none;" d="M335 307L335 325L336 325L335 307z"/>
<path style="fill:#c56c1a; stroke:none;" d="M149 308L149 327L150 327L149 308z"/>
<path style="fill:#f6911e; stroke:none;" d="M150 308C150 317.226 147.152 331.464 157.015 336.682C163.308 340.011 174.035 338 181 338L181 308L150 308M303 308C305.124 316.922 305.124 329.078 303 338C312.13 338 327.011 340.959 332.772 331.906C336.846 325.502 335 315.264 335 308L303 308z"/>
<path style="fill:#dc791d; stroke:none;" d="M303 309L303 337L304 337L303 309z"/>
<path style="fill:#5e566c; stroke:none;" d="M201 328C200.369 323.956 203.035 319.731 202.174 316.153C201.647 313.964 198.676 312.885 197.657 315.337C196.434 318.279 198.769 326.053 201 328z"/>
<path style="fill:#2e1007; stroke:none;" d="M209 313L209 314L281 314L258 313L209 313z"/>
<path style="fill:#472a09; stroke:none;" d="M209 319L209 320L281 320L258 319L209 319z"/>
<path style="fill:#f6911e; stroke:none;" d="M203 335L203 341L280 341L280 320L231 320L210.229 320.603L203 335z"/>
<path style="fill:#a15f14; stroke:none;" d="M280 320L280 341L281 341L280 320z"/>
<path style="fill:#2e293e; stroke:none;" d="M200 321L200 326L201 326L200 321z"/>
<path style="fill:#7c550c; stroke:none;" d="M192.333 323.667L192.667 324.333L192.333 323.667z"/>
<path style="fill:#74400f; stroke:none;" d="M208 328L208 331L209 331L208 328z"/>
<path style="fill:#674d0b; stroke:none;" d="M194.667 334.333L195.333 334.667L194.667 334.333z"/>
<path style="fill:#794411; stroke:none;" d="M203 334L203 335L206 335L203 334z"/>
<path style="fill:#7d550c; stroke:none;" d="M196 335L196 343L197 343L196 335z"/>
<path style="fill:#8d5311; stroke:none;" d="M303 338L303 339L324 339L303 338z"/>
<path style="fill:#391f08; stroke:none;" d="M203 341L203 342L281 342L257 341L203 341z"/>
<path style="fill:#837004; stroke:none;" d="M284 346L285 347L284 346z"/>
<path style="fill:#3c3002; stroke:none;" d="M201 347L201 348L283 348L258 347L201 347z"/>
<path style="fill:#ffed09; stroke:none;" d="M205 356L205 357L289 357L263 356L205 356z"/>
<path style="fill:#6c5804; stroke:none;" d="M195 357L195 358L289 358L260 357L195 357z"/>
</svg>
