<?xml version="1.0" standalone="yes"?>
<svg width="500" height="500">
<path style="fill:#ffffff; stroke:none;" d="M0 0L0 500L500 500L500 0L0 0z"/>
<path style="fill:#5d5c5c; stroke:none;" d="M78 35L77 468L412 466L412 35L78 35z"/>
<path style="fill:#000000; stroke:none;" d="M154 218L154 219C143.174 226.996 139.839 251.536 144.108 264C146.811 271.89 153.31 278.358 153.903 287C154.61 297.312 145.839 305.527 148.613 316C150.387 322.699 159.773 341.613 167.093 342.852C175.904 344.343 186.063 343.018 195 343C197.743 342.994 203.022 343.698 203.469 339.852C204.408 331.78 189.715 320.841 193.816 313.285C204.806 293.041 227.372 296.886 247 294C245.801 309.191 246.306 316.118 253.247 330C255.058 333.623 256.835 339.704 260.39 341.972C264.394 344.526 272.421 343 277 343C280.967 343 292.315 344.941 294.957 341.397C297.633 337.807 292.758 329.539 291.424 326C286.86 313.901 286.022 304.88 288.147 292.015C288.93 287.281 293.583 285.614 296.146 281.957C300.152 276.24 301.711 269.026 306.07 263.275C310.138 257.909 315.984 256.852 319 250C325.196 254.408 343.279 261.743 346.566 249.981C348.903 241.616 344.467 230.558 344.104 222C343.863 216.299 347.42 210.61 345.142 205.004C340.621 193.878 329.297 190.781 319 187.8C303.663 183.36 289.6 200.443 276 203.686C271.922 204.659 263.944 206.878 260 206.688C255.514 206.471 251.764 203.831 247 204.047C243.183 204.22 239.714 206.924 236 206.698C231.872 206.447 228.342 204.014 224 204.03C212.843 204.07 200.282 207.249 189 205.637C177.691 204.02 167.223 202.224 156 199.579C153.172 198.912 147.408 196.084 144.746 198.068C138.322 202.855 150.441 215.47 154 218z"/>
<path style="fill:#2f2f2f; stroke:none;" d="M324 190L324 191L330 191L324 190z"/>
<path style="fill:#686766; stroke:none;" d="M313 194L314 195L313 194z"/>
<path style="fill:#fffffa; stroke:none;" d="M299 204L307 206L307 205L301 203C303.728 198.053 313.539 196.351 319 196C313.302 191.878 300.687 197.613 299 204z"/>
<path style="fill:#626261; stroke:none;" d="M318 194L319 195L318 194z"/>
<path style="fill:#a4a3a1; stroke:none;" d="M319 195L320 196L319 195z"/>
<path style="fill:#7a7977; stroke:none;" d="M309.667 196.333L310.333 196.667L309.667 196.333z"/>
<path style="fill:#eae9e4; stroke:none;" d="M301 203L306 207C309.456 207.839 313.47 209.513 314 205L332 204C328.489 194.445 304.27 193.147 301 203z"/>
<path style="fill:#a2a29e; stroke:none;" d="M306.667 197.333L307.333 197.667L306.667 197.333z"/>
<path style="fill:#414140; stroke:none;" d="M322 197L322 198L326 198L322 197z"/>
<path style="fill:#a7a7a4; stroke:none;" d="M326 197L326 198L330 198L326 197z"/>
<path style="fill:#fcfcf8; stroke:none;" d="M325 198L325 199L332 204L314 205L314 206C324.31 204.484 329.167 205.434 339 209C336.105 203.24 331.653 198.217 325 198z"/>
<path style="fill:#bcbbb6; stroke:none;" d="M299.333 200.667L299.667 201.333L299.333 200.667z"/>
<path style="fill:#3c3c3a; stroke:none;" d="M298.333 202.667L298.667 203.333L298.333 202.667z"/>
<path style="fill:#7e7e7b; stroke:none;" d="M301 204L302 205L301 204z"/>
<path style="fill:#474746; stroke:none;" d="M320 204L320 205L326 205L320 204z"/>
<path style="fill:#848380; stroke:none;" d="M326.667 204.333L327.333 204.667L326.667 204.333z"/>
<path style="fill:#858482; stroke:none;" d="M335 204L336 205L335 204z"/>
<path style="fill:#5e5d5b; stroke:none;" d="M303 205L304 206L303 205z"/>
<path style="fill:#575755; stroke:none;" d="M330 205L331 206L330 205z"/>
<path style="fill:#cdccc8; stroke:none;" d="M152 206C155.814 211.831 159.48 214.576 166 211L166 210L152 206z"/>
<path style="fill:#737371; stroke:none;" d="M154.667 206.333L155.333 206.667L154.667 206.333z"/>
<path style="fill:#91908d; stroke:none;" d="M285 206L287 208L287 206L285 206z"/>
<path style="fill:#696966; stroke:none;" d="M315 206L316 207L315 206z"/>
<path style="fill:#a4a4a1; stroke:none;" d="M333 206L334 207L333 206z"/>
<path style="fill:#636360; stroke:none;" d="M158.667 207.333L159.333 207.667L158.667 207.333z"/>
<path style="fill:#ffffff; stroke:none;" d="M285 207C280.279 212.939 276.8 211.158 270 211L270 212L284 214L285 214L285 207z"/>
<path style="fill:#807f7c; stroke:none;" d="M308 207L309 208L308 207z"/>
<path style="fill:#5d5c5b; stroke:none;" d="M162.667 208.333L163.333 208.667L162.667 208.333z"/>
<path style="fill:#61615f; stroke:none;" d="M310 208L311 209L310 208z"/>
<path style="fill:#636260; stroke:none;" d="M312 208L313 209L312 208z"/>
<path style="fill:#a7a6a5; stroke:none;" d="M337 208L338 209L337 208z"/>
<path style="fill:#767674; stroke:none;" d="M154 209L155 210L154 209z"/>
<path style="fill:#92928f; stroke:none;" d="M165 209L167 211L167 209L165 209z"/>
<path style="fill:#6f6e6b; stroke:none;" d="M283 209L284 210L283 209z"/>
<path style="fill:#eae9e4; stroke:none;" d="M285 209L285 214L284 214L283 212C277.844 214.487 274.244 210.91 269.015 211.803C265.603 212.386 263.495 216.347 259.961 216.137C255.715 215.885 252.537 212.084 248 212.314C243.845 212.525 239.972 217.009 236 216.391C231.877 215.75 229.533 211.438 225 211.128C219.704 210.765 216.703 216.836 212.09 216.388C208.599 216.049 205.902 212.65 201.999 212.333C197.836 211.996 194.063 214.994 190 214.255C186.033 213.535 183.331 210.715 179.001 211.149C174.674 211.583 172.233 214.796 168.95 217.215C157.781 225.444 153.261 231.644 152 246L150 245C150 263.02 155.652 280.218 176 284.211C182.317 285.451 189.447 284.172 196 285L196 286L194 286L194 287L238 289L237 287C242.77 286.541 248.245 284.32 254 284.04C264.932 283.509 279.963 287.671 288.772 279.529C294.092 274.612 296.479 263.432 300.418 257.058C303.86 251.49 312.405 251.388 310.525 243C307.535 229.664 299.942 231.8 291.954 223.815C287.213 219.076 287.377 214.611 285 209z"/>
<path style="fill:#e6af89; stroke:none;" d="M293 209C293.353 223.594 303.683 215.366 310.683 222.318C313.896 225.509 314.5 231.933 316.49 236C321.302 245.835 329.651 248.971 340 249C339.357 240.851 341.055 221.888 335.4 215.638C327.94 207.391 319.702 215.305 312 215.648C305.974 215.917 298.918 210.406 293 209z"/>
<path style="fill:#696866; stroke:none;" d="M178 210L178 211L183 211L178 210z"/>
<path style="fill:#696967; stroke:none;" d="M198 210L198 211L203 211L198 210z"/>
<path style="fill:#666663; stroke:none;" d="M222 210L222 211L227 211L222 210z"/>
<path style="fill:#676664; stroke:none;" d="M246 210L246 211L251 211L246 210z"/>
<path style="fill:#6b6b69; stroke:none;" d="M270 210L270 211L275 211L270 210z"/>
<path style="fill:#4b392c; stroke:none;" d="M292 210L292 214L293 214L292 210z"/>
<path style="fill:#737370; stroke:none;" d="M156 211L157 212L156 211z"/>
<path style="fill:#807f7f; stroke:none;" d="M184 211L185 212L184 211z"/>
<path style="fill:#80807f; stroke:none;" d="M196 211L197 212L196 211z"/>
<path style="fill:#ffffff; stroke:none;" d="M194 213L194 214L206 213C202.185 210.11 198.111 211.022 194 213z"/>
<path style="fill:#9e9d9a; stroke:none;" d="M228 211L229 212L228 211z"/>
<path style="fill:#ffffff; stroke:none;" d="M242 214L255 214C251.043 210.292 245.838 210.081 242 214z"/>
<path style="fill:#8d8c8b; stroke:none;" d="M252 211L253 212L252 211z"/>
<path style="fill:#7d7c7b; stroke:none;" d="M276 211L277 212L276 211z"/>
<path style="fill:#c59675; stroke:none;" d="M320 211L320 212L327 212L320 211z"/>
<path style="fill:#9a9a98; stroke:none;" d="M174 212L175 213L174 212z"/>
<path style="fill:#9a9a97; stroke:none;" d="M206 212L207 213L206 212z"/>
<path style="fill:#6b6a69; stroke:none;" d="M218 212L219 213L218 212z"/>
<path style="fill:#7e7e7c; stroke:none;" d="M230 212L231 213L230 212z"/>
<path style="fill:#838381; stroke:none;" d="M242 212L243 213L242 212z"/>
<path style="fill:#666664; stroke:none;" d="M254 212L255 213L254 212z"/>
<path style="fill:#a2a29f; stroke:none;" d="M266 212L267 213L266 212z"/>
<path style="fill:#5f5e5d; stroke:none;" d="M278 212L278 213L281 213L278 212z"/>
<path style="fill:#81817e; stroke:none;" d="M161 213L162 214L161 213z"/>
<path style="fill:#6c6b69; stroke:none;" d="M187 213L188 214L187 213z"/>
<path style="fill:#6c6c6a; stroke:none;" d="M193 213L194 214L193 213z"/>
<path style="fill:#888884; stroke:none;" d="M217 213L218 214L217 213z"/>
<path style="fill:#a1a19d; stroke:none;" d="M231 213L232 214L231 213z"/>
<path style="fill:#a9a8a5; stroke:none;" d="M241 213L242 214L241 213z"/>
<path style="fill:#81807d; stroke:none;" d="M255 213L256 214L255 213z"/>
<path style="fill:#83837f; stroke:none;" d="M188 214L189 215L188 214z"/>
<path style="fill:#838380; stroke:none;" d="M192 214L193 215L192 214z"/>
<path style="fill:#706f6c; stroke:none;" d="M216 214L217 215L216 214z"/>
<path style="fill:#8d8c89; stroke:none;" d="M232 214L233 215L232 214z"/>
<path style="fill:#969591; stroke:none;" d="M240 214L241 215L240 214z"/>
<path style="fill:#696865; stroke:none;" d="M256 214L257 215L256 214z"/>
<path style="fill:#6c6c69; stroke:none;" d="M171 215L172 216L171 215z"/>
<path style="fill:#70706d; stroke:none;" d="M209 215L210 216L209 215z"/>
<path style="fill:#858582; stroke:none;" d="M263 215L264 216L263 215z"/>
<path style="fill:#81807d; stroke:none;" d="M286.333 215.667L286.667 216.333L286.333 215.667z"/>
<path style="fill:#7f604c; stroke:none;" d="M293 215L294 216L293 215z"/>
<path style="fill:#5f5e5c; stroke:none;" d="M210 216L211 217L210 216z"/>
<path style="fill:#949390; stroke:none;" d="M262 216L263 217L262 216z"/>
<path style="fill:#866650; stroke:none;" d="M311 216L311 217L314 217L311 216z"/>
<path style="fill:#7d5f4b; stroke:none;" d="M337 216L337 222L338 222L337 216z"/>
<path style="fill:#adaca8; stroke:none;" d="M168.667 217.333L169.333 217.667L168.667 217.333z"/>
<path style="fill:#989894; stroke:none;" d="M211 217L211 218L214 218L211 217M235 217L235 218L238 218L235 217z"/>
<path style="fill:#949392; stroke:none;" d="M166 218L167 219L166 218z"/>
<path style="fill:#8e6c55; stroke:none;" d="M325 218L325 219L328 219L325 218z"/>
<path style="fill:#272727; stroke:none;" d="M344 218L344 226L345 226L344 218z"/>
<path style="fill:#000000; stroke:none;" d="M324.318 220.032C318.993 223.463 324.072 231.684 329.682 227.971C334.759 224.612 329.513 216.685 324.318 220.032z"/>
<path style="fill:#9b9a96; stroke:none;" d="M164 220L165 221L164 220z"/>
<path style="fill:#62615e; stroke:none;" d="M288 220L289 221L288 220z"/>
<path style="fill:#a98165; stroke:none;" d="M299 220L299 221L310 221L299 220z"/>
<path style="fill:#5b5b59; stroke:none;" d="M162 222L163 223L162 222z"/>
<path style="fill:#392b22; stroke:none;" d="M321 222L321 226L322 226L321 222z"/>
<path style="fill:#acaba7; stroke:none;" d="M159.667 223.333L160.333 223.667L159.667 223.333z"/>
<path style="fill:#b18669; stroke:none;" d="M312 223L312 226L313 226L312 223z"/>
<path style="fill:#a17b60; stroke:none;" d="M332 223L332 226L333 226L332 223z"/>
<path style="fill:#858582; stroke:none;" d="M156 225L157 226L156 225z"/>
<path style="fill:#9d9d99; stroke:none;" d="M293 225L294 226L293 225z"/>
<path style="fill:#7c7b77; stroke:none;" d="M155 226L156 227L155 226z"/>
<path style="fill:#444442; stroke:none;" d="M295.667 226.333L296.333 226.667L295.667 226.333z"/>
<path style="fill:#ffffff; stroke:none;" d="M155 227L151 246L152 246L155 227z"/>
<path style="fill:#fcfcf8; stroke:none;" d="M295 227L295 228C297.86 228.683 302.068 228.51 304.301 230.603C311.458 237.312 313.404 250.697 302 253L302 254C315.844 253.551 314.28 235.739 305.301 229.027C302.85 227.195 297.962 227.374 295 227z"/>
<path style="fill:#666663; stroke:none;" d="M298 227L298 228L306 228L298 227z"/>
<path style="fill:#7f604c; stroke:none;" d="M338 228L338 232L339 232L338 228z"/>
<path style="fill:#373737; stroke:none;" d="M345 228L345 234L346 234L345 228z"/>
<path style="fill:#5f5f5d; stroke:none;" d="M306 229L307 230L306 229z"/>
<path style="fill:#49372b; stroke:none;" d="M325 229L325 230L329 230L325 229z"/>
<path style="fill:#d9d8d4; stroke:none;" d="M153 230L153 236L154 236L153 230z"/>
<path style="fill:#979793; stroke:none;" d="M307 232L308 233L307 232z"/>
<path style="fill:#737370; stroke:none;" d="M308 234L309 235L308 234z"/>
<path style="fill:#5c5c5a; stroke:none;" d="M152 237L153 238L152 237z"/>
<path style="fill:#9f9e9a; stroke:none;" d="M310 239L311 240L310 239z"/>
<path style="fill:#765946; stroke:none;" d="M318 239L319 240L318 239z"/>
<path style="fill:#916f57; stroke:none;" d="M339 239L339 245L340 245L339 239z"/>
<path style="fill:#9b9b98; stroke:none;" d="M150.333 243.667L150.667 244.333L150.333 243.667z"/>
<path style="fill:#7f614c; stroke:none;" d="M324 245L325 246L324 245z"/>
<path style="fill:#565554; stroke:none;" d="M149 247L149 254L150 254L149 247z"/>
<path style="fill:#7b5e49; stroke:none;" d="M330.667 248.333L331.333 248.667L330.667 248.333z"/>
<path style="fill:#5c5b59; stroke:none;" d="M310 251L311 252L310 251z"/>
<path style="fill:#585755; stroke:none;" d="M309 252L310 253L309 252z"/>
<path style="fill:#b6b5b1; stroke:none;" d="M302 254L302 255L305 255L302 254z"/>
<path style="fill:#5a5a58; stroke:none;" d="M149 257L149 260L150 260L149 257z"/>
<path style="fill:#6e6d6b; stroke:none;" d="M299 257L299 260L300 260L299 257z"/>
<path style="fill:#61605e; stroke:none;" d="M150 262L151 263L150 262z"/>
<path style="fill:#7b7a78; stroke:none;" d="M298 262L299 263L298 262z"/>
<path style="fill:#5d5d5a; stroke:none;" d="M152 265L153 266L152 265z"/>
<path style="fill:#5f5e5b; stroke:none;" d="M296 265L297 266L296 265z"/>
<path style="fill:#9d9c99; stroke:none;" d="M292 269L292 274L293 274L292 269z"/>
<path style="fill:#6f6e6b; stroke:none;" d="M155 270L156 271L155 270z"/>
<path style="fill:#7f7e7b; stroke:none;" d="M291 276L292 277L291 276z"/>
<path style="fill:#777775; stroke:none;" d="M164 279L165 280L164 279z"/>
<path style="fill:#565654; stroke:none;" d="M167 281L168 282L167 281z"/>
<path style="fill:#9b9a96; stroke:none;" d="M285 281L286 282L285 281z"/>
<path style="fill:#c7c6c2; stroke:none;" d="M172.667 283.333L173.333 283.667L172.667 283.333z"/>
<path style="fill:#686866; stroke:none;" d="M282 283L283 284L282 283z"/>
<path style="fill:#9d9c99; stroke:none;" d="M175.667 284.333L176.333 284.667L175.667 284.333z"/>
<path style="fill:#ffffff; stroke:none;" d="M180 284L180 285L196 286L180 284M237 287L237 288L277 285C265.317 280.098 248.895 285.464 237 287z"/>
<path style="fill:#50504e; stroke:none;" d="M279.667 284.333L280.333 284.667L279.667 284.333z"/>
<path style="fill:#5e4737; stroke:none;" d="M160 285L160 292L161 292L162 285L160 285z"/>
<path style="fill:#6e6d6b; stroke:none;" d="M179 285L179 286L192 286L179 285M250 285L250 286L277 286L250 285z"/>
<path style="fill:#e6af89; stroke:none;" d="M161 286C160.976 294.83 155.693 301.598 155.12 310C154.335 321.533 165.955 335.991 177 336L167.843 313.004L184 293L161 286z"/>
<path style="fill:#525150; stroke:none;" d="M247.667 286.333L248.333 286.667L247.667 286.333z"/>
<path style="fill:#969592; stroke:none;" d="M197.667 287.333L198.333 287.667L197.667 287.333z"/>
<path style="fill:#72726f; stroke:none;" d="M243.667 287.333L244.333 287.667L243.667 287.333z"/>
<path style="fill:#7f7f7c; stroke:none;" d="M201.667 288.333L202.333 288.667L201.667 288.333z"/>
<path style="fill:#8b8b88; stroke:none;" d="M238 288L238 289L241 289L238 288z"/>
<path style="fill:#313131; stroke:none;" d="M288 288L288 293L289 293L288 288z"/>
<path style="fill:#4f3c2f; stroke:none;" d="M168.667 289.333L169.333 289.667L168.667 289.333z"/>
<path style="fill:#454443; stroke:none;" d="M205 289L205 290L208 290L205 289z"/>
<path style="fill:#c9c9c4; stroke:none;" d="M208 289L208 290L212 290L208 289z"/>
<path style="fill:#8c8b88; stroke:none;" d="M232 289L232 290L235 290L232 289z"/>
<path style="fill:#554133; stroke:none;" d="M171.667 290.333L172.333 290.667L171.667 290.333z"/>
<path style="fill:#61615f; stroke:none;" d="M215 290L215 291L228 291L215 290z"/>
<path style="fill:#876650; stroke:none;" d="M174 291L174 292L177 292L174 291z"/>
<path style="fill:#6f5542; stroke:none;" d="M280 291L281 294L282 294L282 291L280 291z"/>
<path style="fill:#a27b60; stroke:none;" d="M160 292L160 295L161 295L160 292z"/>
<path style="fill:#ab8266; stroke:none;" d="M179 292L179 293L185 294L179 292z"/>
<path style="fill:#d6a27f; stroke:none;" d="M254 292C253.877 306.85 251.105 335.983 273 336L262.314 312L264 293L254 292z"/>
<path style="fill:#98735a; stroke:none;" d="M256 292L256 293L265 294L256 292z"/>
<path style="fill:#a57d62; stroke:none;" d="M271 295L272 295L277 293C274.238 291.409 271.714 291.669 271 295z"/>
<path style="fill:#e6af89; stroke:none;" d="M285 335L279.38 313L281 292C262.778 293.453 271.607 330.812 285 335z"/>
<path style="fill:#a77f63; stroke:none;" d="M192.667 293.333L193.333 293.667L192.667 293.333z"/>
<path style="fill:#d6a27f; stroke:none;" d="M176 314C179.807 323.144 182.909 334.961 194 335L185.241 312.039L200 295C188.711 292.943 184.424 307.582 176 314z"/>
<path style="fill:#7b5d49; stroke:none;" d="M159.333 296.667L159.667 297.333L159.333 296.667z"/>
<path style="fill:#2f2e2e; stroke:none;" d="M230 296L230 297L235 297L230 296z"/>
<path style="fill:#403126; stroke:none;" d="M270 296L270 299L271 299L270 296z"/>
<path style="fill:#5f4839; stroke:none;" d="M253 297L253 300L254 300L253 297z"/>
<path style="fill:#ffc499; stroke:none;" d="M271 297C270.508 308.457 270.241 335.451 287 336L286 332L285 335C278.566 331.657 271.539 317.253 271.144 310C270.899 305.484 272.818 301.341 271 297z"/>
<path style="fill:#382a21; stroke:none;" d="M263 299L263 304L264 304L263 299z"/>
<path style="fill:#c29373; stroke:none;" d="M270 299L270 303L271 303L270 299z"/>
<path style="fill:#443328; stroke:none;" d="M280 299L280 304L281 304L280 299z"/>
<path style="fill:#735744; stroke:none;" d="M179 300L180 301L179 300z"/>
<path style="fill:#f7bb93; stroke:none;" d="M187 302C183.85 305.149 176.879 309.72 175.816 314.17C173.463 324.021 185.447 335.993 194 336L194 335C182.908 334.869 180.838 322.289 176 314C180.295 311.772 187.111 307.267 187 302z"/>
<path style="fill:#7b5e49; stroke:none;" d="M176 303L177 304L176 303z"/>
<path style="fill:#413126; stroke:none;" d="M252 304L252 307L253 307L252 304z"/>
<path style="fill:#7d5f4a; stroke:none;" d="M279 305L279 310L280 310L279 305z"/>
<path style="fill:#7b5e49; stroke:none;" d="M171 307L172 308L171 307z"/>
<path style="fill:#3f2f25; stroke:none;" d="M262 307L262 311L263 311L262 307z"/>
<path style="fill:#bd9070; stroke:none;" d="M269 307L269 311L270 311L269 307z"/>
<path style="fill:#a57d62; stroke:none;" d="M166.333 312.667L166.667 313.333L166.333 312.667z"/>
<path style="fill:#48372b; stroke:none;" d="M174.333 313.667L174.667 314.333L174.333 313.667z"/>
<path style="fill:#6c5240; stroke:none;" d="M158 320L159 321L158 320z"/>
<path style="fill:#8c6a53; stroke:none;" d="M160 323L161 324L160 323z"/>
<path style="fill:#6d5341; stroke:none;" d="M163 328L164 329L163 328z"/>
<path style="fill:#8c6a53; stroke:none;" d="M165 331L166 332L165 331z"/>
<path style="fill:#6f5442; stroke:none;" d="M272 334L273 335L272 334z"/>
<path style="fill:#82634d; stroke:none;" d="M177 335L168 336L168 337L177 335z"/>
<path style="fill:#795b48; stroke:none;" d="M194 335L186 336L186 337L194 335z"/>
<path style="fill:#82634d; stroke:none;" d="M287 335L281 336L281 337L287 335z"/>
<path style="fill:#795b48; stroke:none;" d="M264 336L264 337L273 337L264 336z"/>
</svg>
