<?xml version="1.0" standalone="yes"?>
<svg width="500" height="500">
<path style="fill:#ffffff; stroke:none;" d="M0 0L0 500L500 500L500 0L0 0z"/>
<path style="fill:#5d5c5c; stroke:none;" d="M78 35L77 468L412 466L412 35L78 35z"/>
<path style="fill:#000000; stroke:none;" d="M208 226C208 235.493 209.301 243.199 215.24 250.996C222.751 260.856 231 261.53 231 275C222.436 275 212.355 273.542 204 275.532C179.338 281.406 183 308.924 183 328L183 351C183.005 353.228 182.376 357.405 184.584 358.863C187.358 360.695 188.752 356.992 188.941 354.956C189.568 348.204 187.115 339.374 196.995 340.063C208.432 340.861 198.198 357.54 205.259 358.94C208.879 359.658 208.954 354.192 208.995 352C209.123 345.225 211.911 328.975 207.973 323.337C202.851 316.004 202 331.831 202 334L189 334C189 317.146 186.543 273.281 216.957 281.318C225.417 283.554 226.798 307.151 236.015 305.113C239.959 304.242 243.611 300.118 247 298C247 301.876 244.794 323.283 249.259 324.079C252.036 324.574 252.769 320.938 252.941 318.995C253.553 312.1 253 304.923 253 298C254.982 299.597 256.938 301.262 259.005 302.75C273.138 312.923 271.793 284.13 282.105 281.319C312.426 273.051 310 317.417 310 334L296 334C296 332.083 295.763 316.384 291.023 323.337C287.106 329.084 289.876 345.146 290.005 352C290.046 354.192 290.121 359.658 293.741 358.94C300.802 357.54 290.568 340.861 302.005 340.063C311.885 339.374 309.432 348.204 310.059 354.956C310.248 356.992 311.642 360.695 314.416 358.863C316.624 357.405 315.995 353.228 316 351L316 328C316 307.806 319.332 280.435 293 275.468C285.018 273.962 276.104 275 268 275C268 261.53 276.249 260.856 283.76 250.996C289.444 243.534 290.994 235.163 291 226C300.189 225.242 308.447 218.06 305.346 208C303.864 203.192 299.487 200.23 299.059 195C298.227 184.83 301.851 175.077 298.301 165C289.923 141.221 265.532 136.461 243 137.015C228.883 137.361 220.752 144.843 210.715 153.53C206.197 157.44 201.515 159.816 199.649 166C197.083 174.503 200.155 184.323 199.995 193C199.794 203.952 184.56 216.493 200.999 224.821C203.217 225.945 205.582 225.942 208 226z"/>
<path style="fill:#92563a; stroke:none;" d="M207 198L209 198C209 190.666 207.226 178.462 214.069 173.451C217.708 170.787 220.83 175.039 224.004 176.558C228.061 178.5 233.613 178.407 238 177.791C252.546 175.746 286.255 154.865 289.815 183C290.435 187.901 290 193.066 290 198L292 198C292 185.223 295.888 171.512 288.451 160.001C277.815 143.536 247.217 139.15 230 146.905C223.967 149.622 220.429 154.387 215.715 158.726C212.919 161.299 209.049 162.53 207.179 166.044C202.829 174.217 207 189.003 207 198z"/>
<path style="fill:#583524; stroke:none;" d="M257 144L257 145L261 145L257 144z"/>
<path style="fill:#403f3f; stroke:none;" d="M198 170L198 178L199 178L198 170z"/>
<path style="fill:#3f281e; stroke:none;" d="M205 170L205 178L206 178L205 170z"/>
<path style="fill:#76573e; stroke:none;" d="M267.667 175.333L268.333 175.667L267.667 175.333z"/>
<path style="fill:#fbb079; stroke:none;" d="M217 181C216.669 197.028 214.614 212.901 215.015 229C215.728 257.662 252.196 269.543 272.91 252.319C287.278 240.372 284.752 219.623 283.17 203C282.528 196.258 285.321 181.293 278.852 176.938C270.549 171.35 257.078 179.493 249 182.176C236.998 186.162 228.619 184.322 217 181z"/>
<path style="fill:#a57553; stroke:none;" d="M275 175L275 176L278 176L275 175z"/>
<path style="fill:#9e7452; stroke:none;" d="M264.667 176.333L265.333 176.667L264.667 176.333z"/>
<path style="fill:#9d7653; stroke:none;" d="M261.667 177.333L262.333 177.667L261.667 177.333z"/>
<path style="fill:#3c251b; stroke:none;" d="M289 180L289 188L290 188L289 180z"/>
<path style="fill:#a17351; stroke:none;" d="M216 181L216 188L217 188L216 181z"/>
<path style="fill:#b4865f; stroke:none;" d="M250.667 181.333L251.333 181.667L250.667 181.333z"/>
<path style="fill:#a27453; stroke:none;" d="M282 181L282 188L283 188L282 181z"/>
<path style="fill:#815f44; stroke:none;" d="M246 182L246 183L249 183L246 182z"/>
<path style="fill:#1f1e1e; stroke:none;" d="M199 183L199 191L200 191L199 183z"/>
<path style="fill:#6a5039; stroke:none;" d="M242.667 183.333L243.333 183.667L242.667 183.333z"/>
<path style="fill:#593625; stroke:none;" d="M206 184L206 198L207 198L206 184z"/>
<path style="fill:#805a3f; stroke:none;" d="M226.667 184.333L227.333 184.667L226.667 184.333z"/>
<path style="fill:#845e42; stroke:none;" d="M237 184L237 185L240 185L237 184z"/>
<path style="fill:#573626; stroke:none;" d="M292 186L292 198L293 198L292 186z"/>
<path style="fill:#252424; stroke:none;" d="M299 187L299 195L300 195L299 187z"/>
<path style="fill:#3d3c3c; stroke:none;" d="M199 191L199 200L200 200L199 191z"/>
<path style="fill:#77553c; stroke:none;" d="M283 192L283 206L284 206L283 192z"/>
<path style="fill:#78553d; stroke:none;" d="M215 195L215 207L216 207L215 195z"/>
<path style="fill:#000000; stroke:none;" d="M228 209C229.59 209.749 230.903 210.709 232.444 211.526C236.588 213.723 238.897 209.86 236.816 206.133C233.324 199.877 220.551 201.782 221.466 209.851C222.032 214.846 226.78 211.206 228 209M271 209C272.542 211.79 277.896 214.481 277.573 208.957C277.13 201.365 265.585 200.147 262.184 206.188C260.089 209.908 262.45 213.703 266.556 211.526C268.097 210.709 269.41 209.749 271 209z"/>
<path style="fill:#735239; stroke:none;" d="M264 203L265 204L264 203z"/>
<path style="fill:#7b563b; stroke:none;" d="M223 204L224 205L223 204z"/>
<path style="fill:#fbb079; stroke:none;" d="M207 219L208 205C199.026 206.39 197.617 217.015 207 219z"/>
<path style="fill:#261b13; stroke:none;" d="M208 205L208 215L209 215L208 205z"/>
<path style="fill:#855c3f; stroke:none;" d="M276 205L277 206L276 205z"/>
<path style="fill:#261b13; stroke:none;" d="M290 205L290 214L291 214L290 205z"/>
<path style="fill:#fbb079; stroke:none;" d="M291 205L292 219C301.469 217.042 300.012 206.396 291 205z"/>
<path style="fill:#865b3e; stroke:none;" d="M237 206L238 207L237 206z"/>
<path style="fill:#8b5e41; stroke:none;" d="M261 206L262 207L261 206z"/>
<path style="fill:#714e39; stroke:none;" d="M201 207L202 208L201 207z"/>
<path style="fill:#62452f; stroke:none;" d="M238 208L238 211L239 211L238 208z"/>
<path style="fill:#644630; stroke:none;" d="M260 208L260 211L261 211L260 208z"/>
<path style="fill:#332419; stroke:none;" d="M199 210L199 214L200 214L199 210z"/>
<path style="fill:#322419; stroke:none;" d="M299 210L299 214L300 214L299 210z"/>
<path style="fill:#c1895f; stroke:none;" d="M207 213L207 219L208 219L207 213z"/>
<path style="fill:#bf865c; stroke:none;" d="M223.667 213.333L224.333 213.667L223.667 213.333z"/>
<path style="fill:#bf885f; stroke:none;" d="M291 214L291 219L292 219L291 214z"/>
<path style="fill:#4c3626; stroke:none;" d="M214 215L214 225L215 225L214 215z"/>
<path style="fill:#4e3727; stroke:none;" d="M284 215L284 225L285 225L284 215z"/>
<path style="fill:#93684a; stroke:none;" d="M201 216L202 217L201 216z"/>
<path style="fill:#453327; stroke:none;" d="M291.667 219.333L292.333 219.667L291.667 219.333z"/>
<path style="fill:#000000; stroke:none;" d="M230 234C231.339 230.816 232.297 222.24 226.144 226.623C221.292 230.078 222.666 238.282 228.044 240.397C236.682 243.794 260.971 243.015 269.985 240.682C274.821 239.43 277.384 233.504 274.971 229.059C270.795 221.362 266.44 227.911 269 234C262.075 226.764 252.447 215.344 241.004 222.604C236.662 225.359 233.527 230.315 230 234z"/>
<path style="fill:#8f6749; stroke:none;" d="M214 225L214 233L215 233L214 225z"/>
<path style="fill:#8e6649; stroke:none;" d="M284 225L284 233L285 233L284 225z"/>
<path style="fill:#282727; stroke:none;" d="M207 226L207 234L208 234L207 226z"/>
<path style="fill:#292828; stroke:none;" d="M291 226L291 234L292 234L291 226z"/>
<path style="fill:#92563a; stroke:none;" d="M244 228L239 235L259 235L255 228L244 228z"/>
<path style="fill:#785138; stroke:none;" d="M234 229L235 230L234 229z"/>
<path style="fill:#7a5339; stroke:none;" d="M264 229L265 230L264 229z"/>
<path style="fill:#cb8f62; stroke:none;" d="M222 231L222 235L223 235L222 231z"/>
<path style="fill:#ca8e61; stroke:none;" d="M276 231L276 235L277 235L276 231z"/>
<path style="fill:#805c41; stroke:none;" d="M215.333 234.667L215.667 235.333L215.333 234.667z"/>
<path style="fill:#6b412c; stroke:none;" d="M254 234L254 235L258 235L254 234z"/>
<path style="fill:#7f5b41; stroke:none;" d="M283.333 234.667L283.667 235.333L283.333 234.667z"/>
<path style="fill:#ffe29b; stroke:none;" d="M247 241L247 242L252 242L247 241z"/>
<path style="fill:#62452f; stroke:none;" d="M229 241L229 242L270 242C259.498 237.593 240.521 241 229 241z"/>
<path style="fill:#000000; stroke:none;" d="M244 243C244.617 250.915 254.383 250.915 255 243L244 243z"/>
<path style="fill:#835a40; stroke:none;" d="M219 244L220 245L219 244z"/>
<path style="fill:#4d3625; stroke:none;" d="M243 244L243 247L244 247L243 244z"/>
<path style="fill:#4c3524; stroke:none;" d="M255 244L255 247L256 247L255 244z"/>
<path style="fill:#825a41; stroke:none;" d="M279 244L280 245L279 244z"/>
<path style="fill:#815b41; stroke:none;" d="M222 248L223 249L222 248z"/>
<path style="fill:#926948; stroke:none;" d="M244 248L245 249L244 248z"/>
<path style="fill:#916948; stroke:none;" d="M254 248L255 249L254 248z"/>
<path style="fill:#835c42; stroke:none;" d="M276 248L277 249L276 248z"/>
<path style="fill:#a4734f; stroke:none;" d="M246 249L246 250L253 250L246 249z"/>
<path style="fill:#8d674a; stroke:none;" d="M225 251L226 252L225 251z"/>
<path style="fill:#74563e; stroke:none;" d="M272 252L273 253L272 252z"/>
<path style="fill:#846348; stroke:none;" d="M266 256L267 257L266 256z"/>
<path style="fill:#ae7d57; stroke:none;" d="M239 259L239 260L242 260L239 259z"/>
<path style="fill:#674c37; stroke:none;" d="M258.667 259.333L259.333 259.667L258.667 259.333z"/>
<path style="fill:#533f2e; stroke:none;" d="M242.667 260.333L243.333 260.667L242.667 260.333z"/>
<path style="fill:#c18a61; stroke:none;" d="M244 260L244 261L255 261L244 260z"/>
<path style="fill:#363535; stroke:none;" d="M230 263L230 274L208 274L208 275L231 275L230 263M268 263L268 275L289 275L289 274L269 274L268 263z"/>
<path style="fill:#70513a; stroke:none;" d="M237 266L237 276L238 276L240 267L237 266z"/>
<path style="fill:#6e5039; stroke:none;" d="M258 266L258 267L261 267L261 276L262 276L262 266L258 266z"/>
<path style="fill:#fbb079; stroke:none;" d="M238 267C238.001 276.937 241.931 279.49 249 286L250 286C257.504 279.91 260.999 276.857 261 267L238 267z"/>
<path style="fill:#4e3929; stroke:none;" d="M244 267L244 268L255 268L244 267z"/>
<path style="fill:#b8835b; stroke:none;" d="M255 267L255 268L258 268L255 267z"/>
<path style="fill:#896548; stroke:none;" d="M239 277L240 278L239 277z"/>
<path style="fill:#7b5b41; stroke:none;" d="M257 279L258 280L257 279z"/>
<path style="fill:#642c27; stroke:none;" d="M208 281L208 282L220 282L208 281M228 283L234 282L228 283z"/>
<path style="fill:#652c28; stroke:none;" d="M266 281L266 282L271 282L266 281z"/>
<path style="fill:#642c27; stroke:none;" d="M279 281L279 282L290 282L279 281z"/>
<path style="fill:#d95b4f; stroke:none;" d="M205 282L205 283L207 284C198.877 286.053 193.304 291.643 192 300L191 300L191 297L190 297L190 333L202 333C202.003 329.239 206.049 316.155 208.682 326.024C211.197 335.449 209.765 350.494 208 360L291 360C289.235 350.494 287.803 335.449 290.318 326.024C292.951 316.155 296.997 329.239 297 333L309 333C309 315.47 314.762 284.866 290 282.174C287.101 281.858 282.955 281.41 280.213 282.603C273.654 285.457 271.876 306.076 263.957 304.825C260.485 304.276 257.126 300.595 254 299C254 303.119 256.46 324.57 249.129 323.369C243.486 322.444 246 302.342 246 298C242.943 299.91 239.545 303.702 236.015 304.518C228.207 306.323 225.466 286.591 220.363 283.028C216.79 280.533 209.19 282 205 282M229 282L235 297L244 291C240.103 285.905 235.557 282.213 229 282z"/>
<path style="fill:#7f5f44; stroke:none;" d="M245 282L246 283L245 282z"/>
<path style="fill:#d95b4f; stroke:none;" d="M256 289L264 297L271 282L256 289z"/>
<path style="fill:#672e2a; stroke:none;" d="M292.667 282.333L293.333 282.667L292.667 282.333z"/>
<path style="fill:#fa695b; stroke:none;" d="M191 300L192 300C194.015 292.026 199.384 286.831 207 284C198.377 281.018 191.391 292.779 191 300z"/>
<path style="fill:#76573f; stroke:none;" d="M251 284L252 285L251 284z"/>
<path style="fill:#3b1d1b; stroke:none;" d="M246 298L246 323L247 323L246 298z"/>
<path style="fill:#b85249; stroke:none;" d="M253 298L253 322L254 322L253 298z"/>
<path style="fill:#302f2f; stroke:none;" d="M182 299L182 358L183 358L183 318L182 299M316 299L316 358L317 358L317 318L316 299z"/>
<path style="fill:#622e29; stroke:none;" d="M189 300L189 334L202 334L202 333L190 333L189 300z"/>
<path style="fill:#612e29; stroke:none;" d="M309 300L309 333L297 333L297 334L310 334L309 300z"/>
<path style="fill:#291513; stroke:none;" d="M296 323L296 334L297 334L296 323z"/>
<path style="fill:#835f43; stroke:none;" d="M190 340L190 341L202 341L190 340M297 340L297 341L309 341L297 340z"/>
<path style="fill:#6e503a; stroke:none;" d="M189 341L189 358L190 358L189 341z"/>
<path style="fill:#fbb079; stroke:none;" d="M190 341L188 360L204 360L202 341L190 341z"/>
<path style="fill:#2e2219; stroke:none;" d="M202 341L202 358L203 358L202 341M296 341L296 358L297 358L296 341z"/>
<path style="fill:#fbb079; stroke:none;" d="M297 341L295 360L311 360L309 341L297 341z"/>
<path style="fill:#6e503a; stroke:none;" d="M309 341L309 358L310 358L309 341z"/>
</svg>
