<?xml version="1.0" standalone="yes"?>
<svg width="500" height="500">
<path style="fill:#ffffff; stroke:none;" d="M0 0L0 500L500 500L500 0L0 0z"/>
<path style="fill:#5d5c5c; stroke:none;" d="M78 35L77 468L412 466L412 35L78 35z"/>
<path style="fill:#000000; stroke:none;" d="M238 167.428C226.627 169.058 215.643 173.069 206 179.345C196.181 185.735 188.228 193.268 181.671 203C141.798 262.183 194.799 340.228 264 328.806C274.84 327.016 285.931 322.438 295 316.329C336.753 288.201 343.067 227.176 307.91 191.039C297.373 180.208 284.243 173.985 270 169.799C259.948 166.844 248.418 165.936 238 167.428z"/>
<path style="fill:#578da1; stroke:none;" d="M237 172L237 173L242 173L237 172z"/>
<path style="fill:#87dcff; stroke:none;" d="M229 183L226 176C203.456 180.715 197.001 198.92 197 220C196.998 250.2 211.596 282.781 242 294C240.718 287.804 237.358 282.128 236.263 276C235.361 270.956 236.883 262.454 233.397 258.318C228.93 253.019 216.282 256.926 210.005 254.411C203.62 251.854 198.123 236.074 201.782 230.023C205.09 224.552 212.04 220.886 216 215C210.064 212.071 208.226 204.079 214.147 199.603C216.119 198.111 219.251 198.377 220.822 196.397C223.417 193.127 221.915 188.66 226.189 186.179C230.386 183.743 237.312 185 242 185L244 172C235.301 173.621 232.007 174.121 229 183z"/>
<path style="fill:#52859a; stroke:none;" d="M244.333 172.667L244.667 173.333L244.333 172.667z"/>
<path style="fill:#647a3a; stroke:none;" d="M249.333 172.667L249.667 173.333L249.333 172.667z"/>
<path style="fill:#bee86e; stroke:none;" d="M247 183L254 177C259.125 179.9 256.797 185.005 251.981 187.146C244.176 190.616 235.304 190 227 190C226.999 198.953 225.669 202.966 216 203L216 210C223.091 209.769 223.587 205.029 229.093 202.028C232.189 200.341 237.51 200.268 241 200.094C248.506 199.721 251.231 208.84 257.961 207.637C263.779 206.596 265.261 198.267 271.999 198.658C284.036 199.357 274.892 210.633 267 211L267 212C280.891 221.157 260.935 223 254 223C243.701 222.999 234.521 215.611 225 215.846C217.268 216.038 205.517 228.109 206.319 236C206.666 239.412 207.627 246.8 210.564 248.972C217.654 254.215 229.586 247.744 236.656 254.419C242.971 260.382 242.108 276.728 244 285C249.412 285 246.605 296.141 254 295.833C259.585 295.601 273.166 283.456 274.833 278C276.176 273.607 274.669 268.082 277.333 264C280.866 258.589 287.131 255.455 289 249C279.979 247.986 274.509 235.508 271 228C278.444 227.347 282.376 238.624 286 244L302 234L302 233C294.688 230.606 289.547 227.437 285 221L298 224.772L311.887 226.471L325 246C331.186 220.247 305.111 189.931 284 179.784C277.552 176.685 257.434 167.863 250.728 173.029C248.203 174.973 247.815 180.106 247 183z"/>
<path style="fill:#809d4a; stroke:none;" d="M257 172L257 173L260 173L257 172z"/>
<path style="fill:#3a4621; stroke:none;" d="M260 172L260 173L263 173L260 172z"/>
<path style="fill:#609cae; stroke:none;" d="M233.667 173.333L234.333 173.667L233.667 173.333z"/>
<path style="fill:#3f4c24; stroke:none;" d="M269.667 174.333L270.333 174.667L269.667 174.333z"/>
<path style="fill:#5c97ae; stroke:none;" d="M225 175L227 177L227 175L225 175z"/>
<path style="fill:#4f612e; stroke:none;" d="M272.667 175.333L273.333 175.667L272.667 175.333z"/>
<path style="fill:#619ead; stroke:none;" d="M222.667 176.333L223.333 176.667L222.667 176.333z"/>
<path style="fill:#687f3c; stroke:none;" d="M248.333 176.667L248.667 177.333L248.333 176.667z"/>
<path style="fill:#243b45; stroke:none;" d="M243.333 177.667L243.667 178.333L243.333 177.667z"/>
<path style="fill:#3c6275; stroke:none;" d="M225.333 179.667L225.667 180.333L225.333 179.667z"/>
<path style="fill:#436d7e; stroke:none;" d="M242.333 180.667L242.667 181.333L242.333 180.667z"/>
<path style="fill:#6c843f; stroke:none;" d="M247.333 180.667L247.667 181.333L247.333 180.667z"/>
<path style="fill:#395c6a; stroke:none;" d="M229 181L230 182L229 181z"/>
<path style="fill:#667c3b; stroke:none;" d="M252 181L253 182L252 181z"/>
<path style="fill:#558a97; stroke:none;" d="M210 182L211 183L210 182z"/>
<path style="fill:#5e99b1; stroke:none;" d="M227.667 182.333L228.333 182.667L227.667 182.333z"/>
<path style="fill:#728b42; stroke:none;" d="M249 182L249 183L252 183L249 182z"/>
<path style="fill:#29424c; stroke:none;" d="M226 185L226 186L241 186L226 185z"/>
<path style="fill:#027d99; stroke:none;" d="M204 186L205 187L204 186z"/>
<path style="fill:#4f818c; stroke:none;" d="M224 186L225 187L224 186z"/>
<path style="fill:#6f8740; stroke:none;" d="M253.667 186.333L254.333 186.667L253.667 186.333z"/>
<path style="fill:#00c3ff; stroke:none;" d="M177 222C175.636 231.271 169.446 244.836 174.028 254C177.255 260.454 185.871 263.763 187.682 271C189.965 280.119 183.497 288.735 189.824 297C218.306 334.208 285.221 335.214 311 294C304.452 295.128 298.526 298.515 292 299.88C281.178 302.144 271.815 301.327 261 300.695C252.557 300.202 246.63 303.648 243 293C233.918 292.844 224.934 282.993 219.004 277C194.004 251.738 191.989 218.292 205 187C197.802 188.2 186.131 205.739 183 212C181.167 215.665 180.156 222.789 177 222z"/>
<path style="fill:#8dac52; stroke:none;" d="M250.667 187.333L251.333 187.667L250.667 187.333z"/>
<path style="fill:#789345; stroke:none;" d="M246.667 188.333L247.333 188.667L246.667 188.333z"/>
<path style="fill:#00647e; stroke:none;" d="M200 189L201 190L200 189z"/>
<path style="fill:#5a93ab; stroke:none;" d="M222 189L222 192L223 192L222 189z"/>
<path style="fill:#6a813d; stroke:none;" d="M242.667 189.333L243.333 189.667L242.667 189.333z"/>
<path style="fill:#687e3c; stroke:none;" d="M298 189L299 190L298 189z"/>
<path style="fill:#00e8ff; stroke:none;" d="M178 223L179 223L201 190C190.425 194.932 179.195 211.33 178 223z"/>
<path style="fill:#3b4822; stroke:none;" d="M226 195L226 198L227 198L226 195z"/>
<path style="fill:#67a8c3; stroke:none;" d="M221.333 196.667L221.667 197.333L221.333 196.667z"/>
<path style="fill:#335461; stroke:none;" d="M214 198L214 199L221 199L214 198z"/>
<path style="fill:#829f4c; stroke:none;" d="M226 198L226 201L227 201L226 198z"/>
<path style="fill:#789345; stroke:none;" d="M270 198L270 199L275 199L270 198z"/>
<path style="fill:#006486; stroke:none;" d="M190 199L191 200L190 199z"/>
<path style="fill:#3b4822; stroke:none;" d="M267.667 199.333L268.333 199.667L267.667 199.333z"/>
<path style="fill:#627939; stroke:none;" d="M308 199L309 200L308 199z"/>
<path style="fill:#809d4a; stroke:none;" d="M237 200L237 201L248 201L237 200z"/>
<path style="fill:#3d4b23; stroke:none;" d="M284.667 201.333L285.333 201.667L284.667 201.333z"/>
<path style="fill:#627939; stroke:none;" d="M278 202L278 207L279 207L278 202z"/>
<path style="fill:#000000; stroke:none;" d="M283 202C283.243 203.828 283.456 205.337 284.279 207.024C291.01 220.828 295.469 204.016 283 202z"/>
<path style="fill:#6c8a3e; stroke:none;" d="M226 203L227 204L226 203z"/>
<path style="fill:#69823d; stroke:none;" d="M250 203L251 204L250 203z"/>
<path style="fill:#436d7a; stroke:none;" d="M270 203L270 204L274 204L270 203z"/>
<path style="fill:#34401e; stroke:none;" d="M215 204C215 207.363 214.284 210.204 218 211L218 210L215 204z"/>
<path style="fill:#afffff; stroke:none;" d="M267 205L267 206L274 205L267 205z"/>
<path style="fill:#5d7335; stroke:none;" d="M288 204L289 205L288 204z"/>
<path style="fill:#18262d; stroke:none;" d="M231 205L231 206L240 206L231 205z"/>
<path style="fill:#31505e; stroke:none;" d="M240 205L240 206L244 207L240 205z"/>
<path style="fill:#6db2ce; stroke:none;" d="M270 205L270 206L273 206L270 205z"/>
<path style="fill:#6fb6d6; stroke:none;" d="M210 206L210 211L211 211L210 206z"/>
<path style="fill:#90ebff; stroke:none;" d="M228 212C241.857 216.516 252.38 218 267 218L267 217L247 210C242.694 216.715 241.95 210.84 243 206C236.612 206 229.849 204.476 228 212z"/>
<path style="fill:#6e883f; stroke:none;" d="M252 206L253 207L252 206z"/>
<path style="fill:#627339; stroke:none;" d="M259.667 207.333L260.333 207.667L259.667 207.333z"/>
<path style="fill:#576c32; stroke:none;" d="M290 207L291 208L290 207z"/>
<path style="fill:#98b058; stroke:none;" d="M254 208L254 209L257 209L254 208z"/>
<path style="fill:#72bad8; stroke:none;" d="M247.667 209.333L248.333 209.667L247.667 209.333z"/>
<path style="fill:#6f8940; stroke:none;" d="M315 209L316 210L315 209z"/>
<path style="fill:#27404a; stroke:none;" d="M227.333 210.667L227.667 211.333L227.333 210.667z"/>
<path style="fill:#495a2b; stroke:none;" d="M270 210L270 211L273 211L270 210z"/>
<path style="fill:#3d6378; stroke:none;" d="M211 212L212 213L211 212z"/>
<path style="fill:#4d7e8a; stroke:none;" d="M251 212L252 213L251 212z"/>
<path style="fill:#3d6479; stroke:none;" d="M259.667 212.333L260.333 212.667L259.667 212.333z"/>
<path style="fill:#436d7f; stroke:none;" d="M253 213L253 214L257 214L253 213z"/>
<path style="fill:#50d2ff; stroke:none;" d="M196 216L196 230L197 230L196 216z"/>
<path style="fill:#dcff7f; stroke:none;" d="M289 219C292.596 224.086 295.682 226.593 302 226L302 225L289 219z"/>
<path style="fill:#000000; stroke:none;" d="M286 220C287.474 229.526 295.948 226.8 299.94 232.418C302.069 235.414 289.7 242.477 287.104 242.129C280.646 241.264 279.064 229.078 272 227C272.603 235.997 280.431 248.689 290 249C286.234 253.636 280.844 257.745 277.988 263C275.651 267.301 276.426 272.568 274.486 277C272.098 282.458 266.357 286.465 262 290.285C259.635 292.358 256.465 296.607 253.015 296.654C248.499 296.716 246.82 290.277 245.576 287C242.35 278.497 242.746 259.054 235.867 253.514C228.604 247.665 215.456 255.402 209.589 247.852C204.614 241.449 206.21 233.556 209 227C196.853 224.301 201.636 245.025 205.164 250.867C210.726 260.075 226.464 250.977 233.566 258.318C236.106 260.943 235.87 264.638 236.285 268C237.508 277.922 241.114 309.62 258 300.347C260.578 298.931 262.85 296.892 265 294.91C268.267 291.9 271.781 288.993 274.891 285.83C279.867 280.771 278.797 275.115 281.032 269C284.444 259.663 295.599 256.08 293 245L308 236L306 230L315 233C316.503 222.489 303.697 227.773 298 226.227C293.401 224.978 290.979 220.768 286 220z"/>
<path style="fill:#69813d; stroke:none;" d="M270 221L271 222L270 221z"/>
<path style="fill:#748f43; stroke:none;" d="M285.333 221.667L285.667 222.333L285.333 221.667z"/>
<path style="fill:#345a72; stroke:none;" d="M211 222L212 223L211 222z"/>
<path style="fill:#293218; stroke:none;" d="M243 222L243 223L270 223L243 222z"/>
<path style="fill:#3f4d25; stroke:none;" d="M212 223L212 224L215 224L212 223z"/>
<path style="fill:#008cb8; stroke:none;" d="M176.333 224.667L176.667 225.333L176.333 224.667z"/>
<path style="fill:#8aa84f; stroke:none;" d="M322.333 224.667L322.667 225.333L322.333 224.667z"/>
<path style="fill:#385c6b; stroke:none;" d="M205 225L205 226L208 226L205 225z"/>
<path style="fill:#536630; stroke:none;" d="M306 225L306 226L311 226L306 225z"/>
<path style="fill:#7a9345; stroke:none;" d="M208 226L209 227L208 226z"/>
<path style="fill:#687f3c; stroke:none;" d="M298 226L298 227L301 227L298 226z"/>
<path style="fill:#007193; stroke:none;" d="M175.333 227.667L175.667 228.333L175.333 227.667z"/>
<path style="fill:#637939; stroke:none;" d="M275 227L276 228L275 227z"/>
<path style="fill:#5d7036; stroke:none;" d="M314 227L315 228L314 227z"/>
<path style="fill:#728b42; stroke:none;" d="M323.333 227.667L323.667 228.333L323.333 227.667z"/>
<path style="fill:#485829; stroke:none;" d="M271.333 228.667L271.667 229.333L271.333 228.667z"/>
<path style="fill:#657b3b; stroke:none;" d="M291 228L292 229L291 228z"/>
<path style="fill:#4c7b94; stroke:none;" d="M201 229L202 230L201 229z"/>
<path style="fill:#5e7436; stroke:none;" d="M277 230L278 231L277 230z"/>
<path style="fill:#5e99b0; stroke:none;" d="M306 232L311 231L306 232z"/>
<path style="fill:#006b8b; stroke:none;" d="M174.333 231.667L174.667 232.333L174.333 231.667z"/>
<path style="fill:#477486; stroke:none;" d="M200 231L200 235L201 235L200 231z"/>
<path style="fill:#3a4621; stroke:none;" d="M295 231L295 232L301 232L295 231z"/>
<path style="fill:#87dcff; stroke:none;" d="M307 231C307.262 239.183 298.355 239.009 295.102 245.184C291.357 252.293 285.69 258.816 282.024 266C279.645 270.661 281.068 276.464 278.258 281C273.421 288.807 263.91 292.621 260 301C275.53 301 301.927 304.335 313.39 290.867C319.748 283.399 328.586 263.228 325.308 253.17C324.182 249.717 320.47 247.283 318.803 243.999C315.231 236.959 316.835 231.655 307 231z"/>
<path style="fill:#6a813d; stroke:none;" d="M324.333 231.667L324.667 232.333L324.333 231.667z"/>
<path style="fill:#92b255; stroke:none;" d="M205 232L205 235L206 235L205 232z"/>
<path style="fill:#53879c; stroke:none;" d="M312 232L313 233L312 232z"/>
<path style="fill:#769244; stroke:none;" d="M279 233L280 234L279 233z"/>
<path style="fill:#64793a; stroke:none;" d="M299 235L300 236L299 235z"/>
<path style="fill:#394521; stroke:none;" d="M325 235L325 238L326 238L325 235z"/>
<path style="fill:#0083ac; stroke:none;" d="M173 236L173 240L174 240L173 236z"/>
<path style="fill:#759143; stroke:none;" d="M275 236L276 237L275 236z"/>
<path style="fill:#426c76; stroke:none;" d="M306 236L307 237L306 236z"/>
<path style="fill:#487487; stroke:none;" d="M201.333 237.667L201.667 238.333L201.333 237.667z"/>
<path style="fill:#687f3d; stroke:none;" d="M206.333 237.667L206.667 238.333L206.333 237.667z"/>
<path style="fill:#687c3c; stroke:none;" d="M296 237L297 238L296 237z"/>
<path style="fill:#718a41; stroke:none;" d="M318.667 237.333L319.333 237.667L318.667 237.333z"/>
<path style="fill:#3e656e; stroke:none;" d="M303 238L304 239L303 238z"/>
<path style="fill:#a3c75e; stroke:none;" d="M325 238L325 244L326 244L325 238z"/>
<path style="fill:#5c7235; stroke:none;" d="M277 239L278 240L277 239z"/>
<path style="fill:#6a803e; stroke:none;" d="M293 239L294 240L293 239z"/>
<path style="fill:#578eab; stroke:none;" d="M316.333 239.667L316.667 240.333L316.333 239.667z"/>
<path style="fill:#627839; stroke:none;" d="M321 239L322 240L321 239z"/>
<path style="fill:#3e6570; stroke:none;" d="M300 240L301 241L300 240z"/>
<path style="fill:#467184; stroke:none;" d="M202.333 241.667L202.667 242.333L202.333 241.667z"/>
<path style="fill:#6b823e; stroke:none;" d="M207.333 241.667L207.667 242.333L207.333 241.667z"/>
<path style="fill:#6c863f; stroke:none;" d="M284 241L285 242L284 241z"/>
<path style="fill:#3c626c; stroke:none;" d="M297 242L298 243L297 242z"/>
<path style="fill:#002834; stroke:none;" d="M172 243L172 253L173 253L172 243z"/>
<path style="fill:#728942; stroke:none;" d="M287 243L288 244L287 243z"/>
<path style="fill:#385b67; stroke:none;" d="M294 244L295 245L294 244z"/>
<path style="fill:#446e80; stroke:none;" d="M203.333 245.667L203.667 246.333L203.333 245.667z"/>
<path style="fill:#6e8740; stroke:none;" d="M208 245L208 248L209 248L208 245z"/>
<path style="fill:#5c96ac; stroke:none;" d="M293.333 245.667L293.667 246.333L293.333 245.667z"/>
<path style="fill:#758e44; stroke:none;" d="M282 247L283 248L282 247z"/>
<path style="fill:#2c4854; stroke:none;" d="M294 248L294 251L295 251L294 248z"/>
<path style="fill:#4a5a2b; stroke:none;" d="M289.333 249.667L289.667 250.333L289.333 249.667z"/>
<path style="fill:#5388a4; stroke:none;" d="M204 250L205 251L204 250z"/>
<path style="fill:#4a5a2b; stroke:none;" d="M211 250L211 251L220 251L211 250z"/>
<path style="fill:#4e7e8f; stroke:none;" d="M325 251L326 252L325 251z"/>
<path style="fill:#758e44; stroke:none;" d="M236 253L237 254L236 253z"/>
<path style="fill:#32515d; stroke:none;" d="M208.667 254.333L209.333 254.667L208.667 254.333z"/>
<path style="fill:#6d853f; stroke:none;" d="M237 254L238 255L237 254z"/>
<path style="fill:#5a93ab; stroke:none;" d="M215 255L215 256L220 256L215 255z"/>
<path style="fill:#32515e; stroke:none;" d="M220 255L220 256L226 256L220 255z"/>
<path style="fill:#395c67; stroke:none;" d="M232 256L233 257L232 256z"/>
<path style="fill:#5a93aa; stroke:none;" d="M325 256L325 259L326 259L325 256z"/>
<path style="fill:#5e99b0; stroke:none;" d="M233 257L234 258L233 257z"/>
<path style="fill:#3a4621; stroke:none;" d="M239.333 257.667L239.667 258.333L239.333 257.667z"/>
<path style="fill:#446e82; stroke:none;" d="M234 258L235 259L234 258z"/>
<path style="fill:#54899d; stroke:none;" d="M288 258L289 259L288 258z"/>
<path style="fill:#477388; stroke:none;" d="M287 259L288 260L287 259z"/>
<path style="fill:#263f49; stroke:none;" d="M325.333 259.667L325.667 260.333L325.333 259.667z"/>
<path style="fill:#32525f; stroke:none;" d="M235 260L235 263L236 263L235 260z"/>
<path style="fill:#3a5f71; stroke:none;" d="M286 260L287 261L286 260z"/>
<path style="fill:#91b246; stroke:none;" d="M174.333 262.667L174.667 263.333L174.333 262.667z"/>
<path style="fill:#afd755; stroke:none;" d="M175 263L181 284L182 284C183.185 274.623 183.389 268.93 175 263z"/>
<path style="fill:#6bafcb; stroke:none;" d="M235 263L235 268L236 268L235 263z"/>
<path style="fill:#3a4821; stroke:none;" d="M240 263L240 268L241 268L240 263z"/>
<path style="fill:#487689; stroke:none;" d="M324 263L324 266L325 266L324 263z"/>
<path style="fill:#677e3c; stroke:none;" d="M276 265L276 268L277 268L276 265z"/>
<path style="fill:#2b4752; stroke:none;" d="M323.333 268.667L323.667 269.333L323.333 268.667z"/>
<path style="fill:#335361; stroke:none;" d="M236 269L236 274L237 274L236 269z"/>
<path style="fill:#304f5c; stroke:none;" d="M280 270L280 273L281 273L280 270z"/>
<path style="fill:#425120; stroke:none;" d="M176.333 271.667L176.667 272.333L176.333 271.667z"/>
<path style="fill:#262f13; stroke:none;" d="M183 271L183 275L184 275L183 271z"/>
<path style="fill:#7e9a49; stroke:none;" d="M275 271L275 274L276 274L275 271z"/>
<path style="fill:#6bafcb; stroke:none;" d="M236 274L236 279L237 279L236 274z"/>
<path style="fill:#69803d; stroke:none;" d="M241 274L241 278L242 278L241 274z"/>
<path style="fill:#375967; stroke:none;" d="M279 277L279 280L280 280L279 277z"/>
<path style="fill:#4c7d91; stroke:none;" d="M290.667 277.333L291.333 277.667L290.667 277.333z"/>
<path style="fill:#4b7a8f; stroke:none;" d="M320 277L321 278L320 277z"/>
<path style="fill:#006e90; stroke:none;" d="M187 278L187 281L188 281L187 278z"/>
<path style="fill:#000000; stroke:none;" d="M283 290C287.887 287.715 291.058 284.012 293 279C286.831 278.128 282.038 284.056 283 290z"/>
<path style="fill:#385b67; stroke:none;" d="M292 278L293 279L292 278z"/>
<path style="fill:#425120; stroke:none;" d="M182 280L181 285L182 280z"/>
<path style="fill:#467189; stroke:none;" d="M278 281L279 282L278 281z"/>
<path style="fill:#457086; stroke:none;" d="M291 282L292 283L291 282z"/>
<path style="fill:#deff80; stroke:none;" d="M245 284C245.966 290.539 248.042 298.1 256 296L256 295C248.739 295.23 248.622 288.791 245 284z"/>
<path style="fill:#49778d; stroke:none;" d="M283 284L284 285L283 284z"/>
<path style="fill:#006f91; stroke:none;" d="M186 287L186 290L187 290L186 287z"/>
<path style="fill:#5f9ab3; stroke:none;" d="M281.333 287.667L281.667 288.333L281.333 287.667z"/>
<path style="fill:#4d7e99; stroke:none;" d="M315 287L316 288L315 287z"/>
<path style="fill:#5f7437; stroke:none;" d="M264 288L265 289L264 288z"/>
<path style="fill:#3b6070; stroke:none;" d="M271 288L272 289L271 288z"/>
<path style="fill:#4d7d91; stroke:none;" d="M286 288L287 289L286 288z"/>
<path style="fill:#477484; stroke:none;" d="M270 289L271 290L270 289z"/>
<path style="fill:#3f6775; stroke:none;" d="M282 289L283 290L282 289z"/>
<path style="fill:#497786; stroke:none;" d="M285 289L286 290L285 289z"/>
<path style="fill:#6fb5d7; stroke:none;" d="M241.333 290.667L241.667 291.333L241.333 290.667z"/>
<path style="fill:#538798; stroke:none;" d="M269 290L270 291L269 290z"/>
<path style="fill:#5f9bab; stroke:none;" d="M268 291L269 292L268 291z"/>
<path style="fill:#017aa5; stroke:none;" d="M311 293L312 294L311 293z"/>
<path style="fill:#748b43; stroke:none;" d="M255 296L256 297L255 296z"/>
<path style="fill:#006588; stroke:none;" d="M190 297L191 298L190 297z"/>
<path style="fill:#5b6f35; stroke:none;" d="M251 297L251 298L254 298L251 297z"/>
<path style="fill:#006589; stroke:none;" d="M308 297L309 298L308 297z"/>
<path style="fill:#3b5c6a; stroke:none;" d="M260 298L261 299L260 298z"/>
<path style="fill:#407280; stroke:none;" d="M259 299L260 300L259 299z"/>
<path style="fill:#59d3ff; stroke:none;" d="M266 301L266 302L282 302L266 301z"/>
<path style="fill:#008fbb; stroke:none;" d="M251 302L251 303L254 303L251 302z"/>
<path style="fill:#006a85; stroke:none;" d="M200 307L201 308L200 307M298 307L299 308L298 307z"/>
<path style="fill:#008eb3; stroke:none;" d="M225.667 321.333L226.333 321.667L225.667 321.333z"/>
<path style="fill:#007592; stroke:none;" d="M228.667 322.333L229.333 322.667L228.667 322.333z"/>
<path style="fill:#004050; stroke:none;" d="M269.667 322.333L270.333 322.667L269.667 322.333z"/>
<path style="fill:#006e8c; stroke:none;" d="M232.667 323.333L233.333 323.667L232.667 323.333M264.667 323.333L265.333 323.667L264.667 323.333z"/>
<path style="fill:#006f91; stroke:none;" d="M236 324L236 325L241 325L236 324M258 324L258 325L261 325L258 324z"/>
<path style="fill:#002834; stroke:none;" d="M244 325L244 326L254 326L244 325z"/>
</svg>
